<?xml version="1.0" encoding="utf-8"?><svg viewBox="0 0 81 26" xmlns="http://www.w3.org/2000/svg" xmlns:xlink="http://www.w3.org/1999/xlink"><style>:root>svg{display:none}:root>svg:target{display:block}</style><svg fill="none" viewBox="0 0 6 10" id="arrow-left" xmlns="http://www.w3.org/2000/svg"><path d="M5 9L1 5l4-4" stroke="#fff" stroke-width=".75"/></svg><svg fill="none" viewBox="0 0 6 10" id="arrow-right" xmlns="http://www.w3.org/2000/svg"><path d="M1 1l4 4-4 4" stroke="#fff" stroke-width=".75"/></svg><svg fill="none" viewBox="0 0 16 16" id="close" xmlns="http://www.w3.org/2000/svg"><path fill="#fff" d="M0 15.334L15.333 0 16 .667.667 16z"/><path fill="#fff" d="M.667 0l15.332 15.333-.666.667L0 .667z"/></svg><svg fill="none" viewBox="0 0 9 9" id="plus" xmlns="http://www.w3.org/2000/svg"><path fill="#3A3E4B" d="M0 4h9v1H0z"/><path fill="#3A3E4B" d="M4 0h1v9H4z"/></svg><svg viewBox="0 0 81 26" id="slogan" xmlns="http://www.w3.org/2000/svg"><path d="M34.904 22.941h4.003l-.015-.09-.578-.047c-.198 0-.35-.015-.472-.03a.805.805 0 01-.26-.06c-.06-.016-.106-.031-.106-.047-.015-.015-.015-.045-.015-.076l1.918-9.027h1.37c.518.06.899.198 1.112.441.213.244.38.746.502 1.507l.03.183h.061l.229-2.268h-7.49l-.7 2.268h.076l.121-.198c.381-.624.731-1.096 1.036-1.4.304-.305.685-.473 1.126-.533h1.553l-1.888 8.982c-.03.121-.289.213-.791.243l-.777.061-.045.091zm11.363.183c.472 0 1.08-.73 1.827-2.192l-.092-.046-1.142 1.736-.73-.092 1.172-2.923c.533-1.324.807-2.1.807-2.314 0-.243-.107-.456-.305-.67-.198-.213-.38-.32-.563-.32-.365 0-.7.168-1.02.503-.304.305-.715.838-1.248 1.614a22.629 22.629 0 00-1.4 2.344l-.092-.03c.487-1.188 1.218-3.502 2.222-6.912l.29-.974-2.269.259-.03.091 1.218.046c.106 0 .137.122.076.35l-.32 1.127c-.213.76-.502 1.705-.837 2.831-.35 1.142-.655 2.101-.898 2.862l-.868 2.497.761.076.548-1.446c.624-1.34 1.28-2.466 1.949-3.38.67-.913 1.142-1.37 1.4-1.37.168 0 .305.061.427.152a.483.483 0 01.182.38c0 .153-.274.914-.791 2.284-.122.335-.29.746-.503 1.249-.213.502-.365.898-.471 1.187-.122.29-.168.457-.168.503 0 .106.107.228.32.365.213.152.395.213.548.213zm4.068 0c.822 0 1.644-.715 2.466-2.162l-.106-.045c-.365.609-.7 1.035-1.005 1.278-.304.26-.654.381-1.02.381-.396 0-.7-.167-.913-.502-.213-.335-.32-.777-.32-1.325 0-.472.076-.974.244-1.522 1.294-.198 2.253-.457 2.877-.777.609-.304.929-.715.929-1.202 0-.274-.137-.503-.396-.685a1.704 1.704 0 00-.974-.274c-.549 0-1.097.243-1.645.7-.548.472-.99 1.08-1.324 1.812a5.103 5.103 0 00-.518 2.222c0 .594.152 1.096.457 1.492.304.411.715.61 1.248.61zm-.563-4.05l-.03-.015c.304-.898.685-1.583 1.172-2.07.396-.365.73-.563 1.035-.563.228 0 .411.076.548.228a.862.862 0 01.198.548c0 .518-.213.913-.624 1.188-.411.274-1.172.502-2.299.685zm5.982 3.867h6.668l.99-2.633-.107-.015-.106.197c-.442.762-.868 1.34-1.264 1.72-.411.381-.944.58-1.599.58l-2.268-.062 1.888-8.906c.015-.121.274-.197.791-.243l.914-.061.06-.091H57.78l.015.091.366.046c.426.06.67.091.746.106.076.03.106.061.106.107l-1.857 8.753c-.03.122-.29.198-.792.26l-.563.06-.046.091zm12.154.198c.594 0 1.263-.73 1.994-2.207l-.091-.046-1.112 1.736-.685-.076.914-2.908 1.142-3.304-.761-.06-.442 1.46h-.015c0-.913-.29-1.37-.868-1.37-.426 0-.837.214-1.264.64A10.93 10.93 0 0065 19.288c-.517.898-.776 1.72-.776 2.466 0 .411.106.746.35.99.228.243.517.365.852.365.366 0 .731-.213 1.112-.67.38-.442.883-1.203 1.507-2.268h.03c-.426 1.065-.624 1.72-.624 1.964 0 .258.03.487.122.7.091.213.198.304.335.304zm-2.07-.654a.704.704 0 01-.564-.26c-.152-.182-.228-.44-.228-.806 0-.655.167-1.416.533-2.284.35-.867.73-1.507 1.157-1.933.274-.274.548-.41.822-.41.32 0 .578.151.791.425.198.29.305.579.305.868 0 .365-.122.792-.365 1.279-1.036 2.085-1.858 3.12-2.451 3.12zm6.215.64c.487 0 .959-.168 1.385-.534.426-.365.624-.791.624-1.294 0-.259-.091-.533-.243-.822-.153-.274-.503-.685-1.051-1.218-.64-.609-.974-1.126-.974-1.522-.016-.365.091-.67.335-.929.228-.259.548-.396.944-.396.395 0 .746.198 1.035.579-.335.107-.503.304-.503.594 0 .152.03.274.122.365a.459.459 0 00.35.137.459.459 0 00.366-.167c.106-.107.152-.26.152-.442-.015-.365-.152-.654-.411-.868-.274-.213-.64-.32-1.111-.32-.457 0-.899.183-1.294.534-.412.365-.61.776-.594 1.248 0 .243.06.472.182.7.122.244.244.426.366.563.122.153.335.35.609.625 0 .015.06.076.182.198.122.121.183.197.214.228.03.03.09.106.182.213.092.106.168.183.198.243.03.061.076.153.137.244.061.091.092.183.122.274.015.091.03.183.03.274 0 .35-.106.67-.334.96-.229.289-.564.425-1.02.425-.518 0-.975-.228-1.37-.7a.816.816 0 00.365-.243.562.562 0 00.152-.366.496.496 0 00-.487-.502.426.426 0 00-.35.183.663.663 0 00-.153.456c0 .396.168.7.533.929.35.243.792.35 1.31.35zm3.763 0c.472 0 1.066-.732 1.797-2.193l-.092-.046-1.096 1.736-.807-.092 1.69-5.587h1.34l.122-.41-1.325-.016.64-2.07h-.746l-.64 2.07-1.08.015-.138.396 1.081.015-1.674 5.557c-.046.122.06.244.304.396.244.152.457.228.624.228zm3.064.03c.183 0 .335-.061.457-.198a.733.733 0 00.198-.488c0-.167-.06-.32-.183-.456a.633.633 0 00-.456-.198.742.742 0 00-.503.198.624.624 0 00-.198.456c0 .183.061.35.198.488.122.137.29.197.487.197zM3.945 10h1.802l1.307-7.37h4.313l.28-1.51H1.204L.926 2.63h4.326L3.945 10zm7.355 0H13.1l.317-1.776v.025c.368-2.08 1.472-3.438 2.842-3.438 1.23 0 1.611.736 1.281 2.652L17.085 10h1.801l.495-2.753c.482-2.766-.19-3.768-1.98-3.793-1.915 0-3.044 1.129-3.615 2.816h-.101l1.167-5.15h-1.98L11.3 10zm12.65.203c1.598 0 2.347-.152 3.654-.622l.253-1.446c-.774.305-1.484.698-3.032.698-1.674 0-2.436-.419-2.46-1.46h5.898l.19-1.04c.28-1.725-1.04-2.88-3.31-2.88-2.297 0-4.06 1.346-4.416 3.375-.355 2.03.927 3.375 3.223 3.375zm-1.472-3.704c.33-1.206 1.091-1.662 2.423-1.662 1.37 0 1.98.418 1.827 1.56l-4.25.102zM33.062 10h1.801l.672-3.806h6.179l.24-1.408h-6.178l.381-2.157h6.293l.266-1.51h-8.081L33.062 10zm11.79-7.434c.699 0 1.18-.33 1.308-1.028.114-.685-.267-1.015-.952-1.015-.672 0-1.167.33-1.281 1.015-.127.698.24 1.028.926 1.028zM42.659 10h1.801l1.117-6.343h-1.801L42.658 10zm3.633 0h1.802l.393-2.245c.393-1.967 1.611-2.791 4.225-2.791l.253-1.51c-2.372 0-3.476.736-4.173 2.816h-.127l.723-2.613h-1.98L46.292 10zm9.595.203c2.232 0 3.843-.622 4.097-2.093.482-2.766-5.404-1.345-5.176-2.576.076-.444.761-.66 2.258-.66.952 0 2.056.14 2.918.33l.254-1.395c-1.066-.216-2.347-.355-3.108-.355-2.233 0-3.857.685-4.11 2.106-.483 2.753 5.43 1.192 5.2 2.55-.1.533-.811.697-2.372.697-1.116 0-2.03-.14-3.019-.545l-.254 1.446c1.003.305 2.335.495 3.312.495zm6.95-.076c.685 0 1.205-.076 1.763-.254l.165-.951c-1.852.101-1.814-.076-1.548-1.586l.419-2.372h1.827l.24-1.307h-1.839l.317-1.776-1.586.253-.279 1.523h-1.154l-.241 1.307h.913l-.482 2.752c-.317 1.815-.165 2.41 1.485 2.41z"/></svg></svg>