<svg width="312" height="93" viewBox="0 0 312 93" fill="none" xmlns="http://www.w3.org/2000/svg">
<path d="M0.984003 36L0.484003 36L0.484003 36.5L0.984003 36.5L0.984003 36ZM0.984001 2.4L0.984001 1.9L0.484001 1.9L0.484001 2.4L0.984001 2.4ZM23.304 3.888L23.0966 4.34299L23.1022 4.34546L23.304 3.888ZM28.344 8.064L27.9246 8.33624L27.9246 8.33624L28.344 8.064ZM23.304 25.296L23.5058 25.7535L23.5114 25.751L23.304 25.296ZM5.304 26.736L4.94802 26.3849L4.10857 27.236L5.304 27.236L5.304 26.736ZM8.76 23.232L9.26 23.232L9.26 22.013L8.40402 22.8809L8.76 23.232ZM8.76 36L8.76 36.5L9.26 36.5L9.26 36L8.76 36ZM8.76 24.096L8.39479 24.4375L9.26 25.3628L9.26 24.096L8.76 24.096ZM5.304 20.4L5.304 19.9L4.15194 19.9L4.93879 20.7415L5.304 20.4ZM5.304 8.736L4.93879 8.3945L4.15194 9.236L5.304 9.236L5.304 8.736ZM8.76 5.04L9.26 5.04L9.26 3.77321L8.39479 4.6985L8.76 5.04ZM1.484 36L1.484 2.4L0.484001 2.4L0.484003 36L1.484 36ZM0.984001 2.9L15.528 2.9L15.528 1.9L0.984001 1.9L0.984001 2.9ZM15.528 2.9C18.4823 2.9 21.0002 3.38725 23.0966 4.34295L23.5114 3.43305C21.2558 2.40474 18.5897 1.9 15.528 1.9L15.528 2.9ZM23.1022 4.34546C25.1979 5.27002 26.7985 6.60144 27.9246 8.33624L28.7634 7.79176C27.5215 5.87856 25.7621 4.42597 23.5058 3.43054L23.1022 4.34546ZM27.9246 8.33624C29.0479 10.0667 29.62 12.1446 29.62 14.592L30.62 14.592C30.62 11.9834 30.0081 9.7093 28.7634 7.79176L27.9246 8.33624ZM29.62 14.592C29.62 17.006 29.0486 19.0683 27.9246 20.7998L28.7634 21.3442C30.0075 19.4277 30.62 17.17 30.62 14.592L29.62 14.592ZM27.9246 20.7998C26.7976 22.5361 25.1949 23.8845 23.0966 24.841L23.5114 25.751C25.7651 24.7236 27.5225 23.256 28.7634 21.3442L27.9246 20.7998ZM23.1022 24.8385C21.0042 25.7641 18.4843 26.236 15.528 26.236L15.528 27.236C18.5877 27.236 21.2518 26.7479 23.5058 25.7535L23.1022 24.8385ZM15.528 26.236L5.304 26.236L5.304 27.236L15.528 27.236L15.528 26.236ZM5.65999 27.0871L9.11599 23.5831L8.40402 22.8809L4.94802 26.3849L5.65999 27.0871ZM8.26 23.232L8.26 36L9.26 36L9.26 23.232L8.26 23.232ZM8.76 35.5L0.984003 35.5L0.984003 36.5L8.76 36.5L8.76 35.5ZM9.12522 23.7545L5.66921 20.0585L4.93879 20.7415L8.39479 24.4375L9.12522 23.7545ZM5.304 20.9L15.096 20.9L15.096 19.9L5.304 19.9L5.304 20.9ZM15.096 20.9C17.5547 20.9 19.4866 20.3773 20.7991 19.2422L20.1449 18.4858C19.0894 19.3987 17.4373 19.9 15.096 19.9L15.096 20.9ZM20.7991 19.2422C22.1115 18.1071 22.748 16.5347 22.748 14.592L21.748 14.592C21.748 16.2973 21.2005 17.5729 20.1449 18.4858L20.7991 19.2422ZM22.748 14.592C22.748 12.6205 22.1135 11.0306 20.7991 9.89382L20.1449 10.6502C21.1985 11.5614 21.748 12.8515 21.748 14.592L22.748 14.592ZM20.7991 9.89382C19.4866 8.7587 17.5547 8.236 15.096 8.236L15.096 9.236C17.4373 9.236 19.0894 9.73731 20.1449 10.6502L20.7991 9.89382ZM15.096 8.236L5.304 8.236L5.304 9.236L15.096 9.236L15.096 8.236ZM5.66921 9.0775L9.12521 5.3815L8.39479 4.6985L4.93879 8.3945L5.66921 9.0775ZM8.26 5.04L8.26 24.096L9.26 24.096L9.26 5.04L8.26 5.04ZM42.0566 34.656L41.8253 35.0993L41.828 35.1006L42.0566 34.656ZM36.9206 29.952L36.4925 30.2103L36.4943 30.2133L36.9206 29.952ZM36.8726 16.224L36.4445 15.9658L36.4433 15.9678L36.8726 16.224ZM41.8166 11.52L42.0537 11.9603L42.0589 11.9574L41.8166 11.52ZM55.6886 11.424L55.4511 11.8641L55.4595 11.8684L55.6886 11.424ZM60.5366 16.032L60.1055 16.2852L60.1073 16.2882L60.5366 16.032ZM62.2646 24.192L62.7626 24.2373L62.7629 24.2335L62.2646 24.192ZM62.1686 25.2L62.1686 25.7L62.6211 25.7L62.6662 25.2498L62.1686 25.2ZM41.1926 25.2L40.6926 25.2L40.6926 25.7L41.1926 25.7L41.1926 25.2ZM41.1926 20.832L41.1926 20.332L40.6926 20.332L40.6926 20.832L41.1926 20.832ZM58.2326 20.832L58.4378 21.288L58.2326 20.332L58.2326 20.832ZM55.3526 22.128L54.8526 22.128L54.8526 22.9013L55.5578 22.584L55.3526 22.128ZM54.5366 18.624L54.0982 18.8644L54.0982 18.8644L54.5366 18.624ZM52.2806 16.32L52.0233 16.7489L52.0341 16.755L52.2806 16.32ZM45.5126 16.32L45.7592 16.755L45.7637 16.7524L45.5126 16.32ZM43.2566 18.672L43.6951 18.9124L43.6982 18.9066L43.2566 18.672ZM43.3526 27.12L42.9162 27.3639L42.9205 27.3716L42.925 27.3792L43.3526 27.12ZM45.9926 29.568L45.764 30.0126L45.7715 30.0165L45.7791 30.0201L45.9926 29.568ZM53.6246 29.76L53.4414 29.2948L53.4364 29.2968L53.6246 29.76ZM56.5046 27.888L56.8722 27.549L56.5258 27.1735L56.1578 27.5278L56.5046 27.888ZM60.4886 32.208L60.8638 32.5385L61.1617 32.2003L60.8562 31.869L60.4886 32.208ZM56.0246 35.328L56.2075 35.7934L56.2146 35.7905L56.0246 35.328ZM49.8326 35.884C46.9548 35.884 44.4435 35.3213 42.2853 34.2114L41.828 35.1006C44.1497 36.2947 46.8225 36.884 49.8326 36.884L49.8326 35.884ZM42.2879 34.2127C40.1543 33.0995 38.5123 31.5921 37.3469 29.6907L36.4943 30.2133C37.761 32.2799 39.5429 33.9085 41.8253 35.0993L42.2879 34.2127ZM37.3488 29.6938C36.1839 27.7624 35.5966 25.5652 35.5966 23.088L34.5966 23.088C34.5966 25.7308 35.2254 28.1096 36.4925 30.2102L37.3488 29.6938ZM35.5966 23.088C35.5966 20.575 36.1697 18.3776 37.302 16.4802L36.4433 15.9678C35.2076 18.0384 34.5966 20.417 34.5966 23.088L35.5966 23.088ZM37.3008 16.4822C38.4704 14.5432 40.0522 13.0379 42.0537 11.9602L41.5796 11.0798C39.421 12.2421 37.7069 13.8728 36.4445 15.9658L37.3008 16.4822ZM42.0589 11.9574C44.0573 10.8506 46.3244 10.292 48.8726 10.292L48.8726 9.292C46.1729 9.292 43.736 9.8854 41.5744 11.0826L42.0589 11.9574ZM48.8726 10.292C51.3265 10.292 53.5155 10.8193 55.4512 11.864L55.9261 10.984C53.8298 9.85265 51.4748 9.292 48.8726 9.292L48.8726 10.292ZM55.4595 11.8684C57.4221 12.8804 58.9686 14.3495 60.1055 16.2852L60.9678 15.7788C59.7366 13.6825 58.0511 12.0796 55.9178 10.9796L55.4595 11.8684ZM60.1073 16.2882C61.2364 18.1802 61.8126 20.4717 61.8126 23.184L62.8126 23.184C62.8126 20.3283 62.2049 17.8518 60.966 15.7758L60.1073 16.2882ZM61.8126 23.184C61.8126 23.4544 61.7976 23.776 61.7664 24.1505L62.7629 24.2335C62.7957 23.84 62.8126 23.4896 62.8126 23.184L61.8126 23.184ZM61.7667 24.1467C61.7348 24.4974 61.703 24.8319 61.6711 25.1502L62.6662 25.2498C62.6983 24.9281 62.7305 24.5906 62.7626 24.2373L61.7667 24.1467ZM62.1686 24.7L41.1926 24.7L41.1926 25.7L62.1686 25.7L62.1686 24.7ZM41.6926 25.2L41.6926 20.832L40.6926 20.832L40.6926 25.2L41.6926 25.2ZM41.1926 21.332L58.2326 21.332L58.2326 20.332L41.1926 20.332L41.1926 21.332ZM58.0274 20.376L55.1475 21.672L55.5578 22.584L58.4378 21.288L58.0274 20.376ZM55.8526 22.128C55.8526 20.7157 55.5664 19.462 54.975 18.3836L54.0982 18.8644C54.5948 19.77 54.8526 20.8523 54.8526 22.128L55.8526 22.128ZM54.975 18.3836C54.3876 17.3123 53.5701 16.476 52.5271 15.885L52.0341 16.755C52.9112 17.252 53.5977 17.9517 54.0982 18.8644L54.975 18.3836ZM52.5379 15.8913C51.4896 15.2623 50.278 14.956 48.9206 14.956L48.9206 15.956C50.1232 15.956 51.1517 16.2257 52.0234 16.7487L52.5379 15.8913ZM48.9206 14.956C47.5629 14.956 46.3384 15.2624 45.2616 15.8876L45.7637 16.7524C46.6709 16.2256 47.7184 15.956 48.9206 15.956L48.9206 14.956ZM45.2661 15.885C44.2191 16.4783 43.4013 17.3339 42.8151 18.4374L43.6982 18.9066C44.1999 17.9621 44.8862 17.2497 45.7591 16.755L45.2661 15.885ZM42.8182 18.4316C42.2259 19.5116 41.9406 20.782 41.9406 22.224L42.9406 22.224C42.9406 20.914 43.1993 19.8164 43.695 18.9124L42.8182 18.4316ZM41.9406 22.224L41.9406 23.376L42.9406 23.376L42.9406 22.224L41.9406 22.224ZM41.9406 23.376C41.9406 24.8581 42.2613 26.1921 42.9162 27.3639L43.7891 26.8761C43.2279 25.8719 42.9406 24.7099 42.9406 23.376L41.9406 23.376ZM42.925 27.3792C43.6139 28.5158 44.5635 29.3953 45.764 30.0126L46.2213 29.1234C45.1818 28.5887 44.3713 27.8362 43.7802 26.8609L42.925 27.3792ZM45.7791 30.0201C47.0102 30.6015 48.4298 30.884 50.0246 30.884L50.0246 29.884C48.5475 29.884 47.2791 29.6225 46.2061 29.1159L45.7791 30.0201ZM50.0246 30.884C51.4499 30.884 52.7164 30.6687 53.8128 30.2232L53.4364 29.2968C52.4849 29.6833 51.3514 29.884 50.0246 29.884L50.0246 30.884ZM53.8079 30.2252C54.9282 29.7839 55.943 29.1229 56.8515 28.2482L56.1578 27.5278C55.3382 28.3171 54.4331 28.9041 53.4414 29.2948L53.8079 30.2252ZM56.1371 28.227L60.1211 32.547L60.8562 31.869L56.8722 27.549L56.1371 28.227ZM60.1135 31.8775C58.9843 33.1592 57.5615 34.1563 55.8347 34.8655L56.2146 35.7905C58.0717 35.0278 59.625 33.9448 60.8638 32.5385L60.1135 31.8775ZM55.8418 34.8626C54.119 35.5394 52.119 35.884 49.8326 35.884L49.8326 36.884C52.2182 36.884 54.3463 36.5246 56.2075 35.7934L55.8418 34.8626ZM69.2179 36L68.7179 36L68.7179 36.5L69.2179 36.5L69.2179 36ZM69.2179 10.176L69.2179 9.676L68.7179 9.676L68.7179 10.176L69.2179 10.176ZM76.3699 10.176L76.8699 10.176L76.8699 9.676L76.3699 9.676L76.3699 10.176ZM76.3699 17.472L75.9186 17.6874L76.8699 17.472L76.3699 17.472ZM75.3619 15.36L74.9011 15.166L74.814 15.3728L74.9106 15.5754L75.3619 15.36ZM79.0579 11.232L79.2979 11.6707L79.3042 11.6671L79.0579 11.232ZM85.2499 9.792L85.7499 9.792L85.7499 9.292L85.2499 9.292L85.2499 9.792ZM85.2499 16.704L85.2001 17.2015L85.7499 17.2565L85.7499 16.704L85.2499 16.704ZM84.3859 16.656L84.3239 17.1521L84.3548 17.156L84.3859 17.156L84.3859 16.656ZM78.5779 18.384L78.917 18.7514L78.9174 18.751L78.5779 18.384ZM76.7059 36L76.7059 36.5L77.2059 36.5L77.2059 36L76.7059 36ZM69.7179 36L69.7179 10.176L68.7179 10.176L68.7179 36L69.7179 36ZM69.2179 10.676L76.3699 10.676L76.3699 9.676L69.2179 9.676L69.2179 10.676ZM75.8699 10.176L75.8699 17.472L76.8699 17.472L76.8699 10.176L75.8699 10.176ZM76.8211 17.2566L75.8131 15.1446L74.9106 15.5754L75.9186 17.6874L76.8211 17.2566ZM75.8227 15.554C76.548 13.8315 77.7035 12.543 79.2979 11.6706L78.8179 10.7934C77.0202 11.777 75.7118 13.2405 74.9011 15.166L75.8227 15.554ZM79.3042 11.6671C80.9086 10.759 82.8831 10.292 85.2499 10.292L85.2499 9.292C82.7527 9.292 80.5992 9.78503 78.8116 10.7969L79.3042 11.6671ZM84.7499 9.792L84.7499 16.704L85.7499 16.704L85.7499 9.792L84.7499 9.792ZM85.2996 16.2065C84.9671 16.1732 84.6621 16.156 84.3859 16.156L84.3859 17.156C84.6217 17.156 84.8927 17.1708 85.2001 17.2015L85.2996 16.2065ZM84.4479 16.1599C84.1691 16.125 83.8763 16.108 83.5699 16.108L83.5699 17.108C83.8395 17.108 84.0906 17.123 84.3239 17.1521L84.4479 16.1599ZM83.5699 16.108C81.4194 16.108 79.6266 16.7328 78.2384 18.0169L78.9174 18.751C80.0891 17.6672 81.6244 17.108 83.5699 17.108L83.5699 16.108ZM78.2387 18.0166C76.8492 19.2992 76.2059 21.2682 76.2059 23.808L77.2059 23.808C77.2059 21.4198 77.8105 19.7728 78.917 18.7514L78.2387 18.0166ZM76.2059 23.808L76.2059 36L77.2059 36L77.2059 23.808L76.2059 23.808ZM76.7059 35.5L69.2179 35.5L69.2179 36.5L76.7059 36.5L76.7059 35.5ZM92.7218 36L92.2218 36L92.2218 36.5L92.7218 36.5L92.7218 36ZM95.3138 2.63999L95.6673 2.99356L95.6705 2.99029L95.3138 2.63999ZM105.826 0.335995L105.716 0.823727L105.719 0.824445L105.826 0.335995ZM108.418 1.392L108.888 1.56253L109.02 1.19759L108.699 0.978882L108.418 1.392ZM106.45 6.816L106.165 7.22709L106.699 7.59634L106.92 6.98653L106.45 6.816ZM100.882 6.86399L100.519 6.51962L100.519 6.52012L100.882 6.86399ZM100.018 12.048L99.5178 12.048L99.5178 12.0629L99.5187 12.0778L100.018 12.048ZM100.21 15.264L100.71 15.264L100.71 15.2491L100.709 15.2342L100.21 15.264ZM100.21 36L100.21 36.5L100.71 36.5L100.71 36L100.21 36ZM88.7378 16.512L88.2378 16.512L88.2378 17.012L88.7378 17.012L88.7378 16.512ZM88.7378 10.752L88.7378 10.252L88.2378 10.252L88.2378 10.752L88.7378 10.752ZM106.642 10.752L107.142 10.752L107.142 10.252L106.642 10.252L106.642 10.752ZM106.642 16.512L106.642 17.012L107.142 17.012L107.142 16.512L106.642 16.512ZM93.2218 36L93.2218 9.6L92.2218 9.6L92.2218 36L93.2218 36ZM93.2218 9.6C93.2218 6.79335 94.0507 4.61012 95.6673 2.99355L94.9602 2.28644C93.1208 4.12587 92.2218 6.58264 92.2218 9.6L93.2218 9.6ZM95.6705 2.99029C97.2788 1.35222 99.5982 0.499994 102.706 0.499994L102.706 -0.500006C99.4133 -0.500006 96.8047 0.40777 94.957 2.2897L95.6705 2.99029ZM102.706 0.499994C103.759 0.499994 104.762 0.608422 105.716 0.823715L105.936 -0.151725C104.905 -0.384434 103.828 -0.500006 102.706 -0.500006L102.706 0.499994ZM105.719 0.824445C106.694 1.03781 107.496 1.36844 108.136 1.80511L108.699 0.978882C107.932 0.455545 107.005 0.082175 105.933 -0.152455L105.719 0.824445ZM107.948 1.22146L105.98 6.64546L106.92 6.98653L108.888 1.56253L107.948 1.22146ZM106.734 6.4049C106.274 6.08645 105.764 5.84092 105.207 5.66676L104.909 6.62124C105.375 6.76707 105.793 6.96954 106.165 7.22709L106.734 6.4049ZM105.207 5.66676C104.643 5.4906 104.049 5.404 103.426 5.404L103.426 6.404C103.955 6.404 104.448 6.47739 104.909 6.62124L105.207 5.66676ZM103.426 5.404C102.235 5.404 101.243 5.75798 100.519 6.51962L101.244 7.20837C101.737 6.69001 102.441 6.404 103.426 6.404L103.426 5.404ZM100.519 6.52012C99.82 7.25773 99.5178 8.33369 99.5178 9.648L100.518 9.648C100.518 8.46631 100.792 7.68626 101.245 7.20787L100.519 6.52012ZM99.5178 9.648L99.5178 12.048L100.518 12.048L100.518 9.648L99.5178 9.648ZM99.5187 12.0778L99.7107 15.2938L100.709 15.2342L100.517 12.0182L99.5187 12.0778ZM99.7098 15.264L99.7098 36L100.71 36L100.71 15.264L99.7098 15.264ZM100.21 35.5L92.7218 35.5L92.7218 36.5L100.21 36.5L100.21 35.5ZM89.2378 16.512L89.2378 10.752L88.2378 10.752L88.2378 16.512L89.2378 16.512ZM88.7378 11.252L106.642 11.252L106.642 10.252L88.7378 10.252L88.7378 11.252ZM106.142 10.752L106.142 16.512L107.142 16.512L107.142 10.752L106.142 10.752ZM106.642 16.012L88.7378 16.012L88.7378 17.012L106.642 17.012L106.642 16.012ZM117.004 34.656L116.773 35.0993L116.775 35.1006L117.004 34.656ZM111.868 29.952L111.44 30.2103L111.442 30.2133L111.868 29.952ZM111.82 16.224L111.392 15.9657L111.391 15.9678L111.82 16.224ZM116.764 11.52L117.001 11.9603L117.006 11.9574L116.764 11.52ZM130.636 11.424L130.399 11.8641L130.407 11.8684L130.636 11.424ZM135.484 16.032L135.053 16.2852L135.055 16.2882L135.484 16.032ZM137.212 24.192L137.71 24.2373L137.71 24.2335L137.212 24.192ZM137.116 25.2L137.116 25.7L137.569 25.7L137.614 25.2497L137.116 25.2ZM116.14 25.2L115.64 25.2L115.64 25.7L116.14 25.7L116.14 25.2ZM116.14 20.832L116.14 20.332L115.64 20.332L115.64 20.832L116.14 20.832ZM133.18 20.832L133.385 21.288L133.18 20.332L133.18 20.832ZM130.3 22.128L129.8 22.128L129.8 22.9013L130.505 22.584L130.3 22.128ZM129.484 18.624L129.046 18.8644L129.046 18.8644L129.484 18.624ZM127.228 16.32L126.971 16.7489L126.982 16.755L127.228 16.32ZM120.46 16.32L120.707 16.755L120.711 16.7524L120.46 16.32ZM118.204 18.672L118.643 18.9124L118.646 18.9066L118.204 18.672ZM118.3 27.12L117.864 27.3639L117.868 27.3716L117.873 27.3791L118.3 27.12ZM120.94 29.568L120.711 30.0126L120.719 30.0165L120.727 30.0201L120.94 29.568ZM128.572 29.76L128.389 29.2948L128.384 29.2968L128.572 29.76ZM131.452 27.888L131.82 27.549L131.473 27.1735L131.105 27.5278L131.452 27.888ZM135.436 32.208L135.811 32.5385L136.109 32.2003L135.804 31.869L135.436 32.208ZM130.972 35.328L131.155 35.7934L131.162 35.7905L130.972 35.328ZM124.78 35.884C121.902 35.884 119.391 35.3213 117.233 34.2114L116.775 35.1006C119.097 36.2947 121.77 36.884 124.78 36.884L124.78 35.884ZM117.235 34.2127C115.102 33.0995 113.46 31.5921 112.294 29.6907L111.442 30.2133C112.709 32.2799 114.49 33.9085 116.773 35.0993L117.235 34.2127ZM112.296 29.6938C111.131 27.7624 110.544 25.5652 110.544 23.088L109.544 23.088C109.544 25.7308 110.173 28.1096 111.44 30.2102L112.296 29.6938ZM110.544 23.088C110.544 20.575 111.117 18.3776 112.249 16.4802L111.391 15.9678C110.155 18.0384 109.544 20.417 109.544 23.088L110.544 23.088ZM112.248 16.4822C113.418 14.5432 115 13.0379 117.001 11.9602L116.527 11.0798C114.369 12.2421 112.654 13.8728 111.392 15.9658L112.248 16.4822ZM117.006 11.9574C119.005 10.8506 121.272 10.292 123.82 10.292L123.82 9.292C121.12 9.292 118.684 9.8854 116.522 11.0826L117.006 11.9574ZM123.82 10.292C126.274 10.292 128.463 10.8193 130.399 11.864L130.874 10.984C128.777 9.85265 126.422 9.292 123.82 9.292L123.82 10.292ZM130.407 11.8684C132.37 12.8804 133.916 14.3495 135.053 16.2852L135.915 15.7788C134.684 13.6825 132.999 12.0796 130.865 10.9796L130.407 11.8684ZM135.055 16.2882C136.184 18.1802 136.76 20.4717 136.76 23.184L137.76 23.184C137.76 20.3283 137.152 17.8517 135.914 15.7758L135.055 16.2882ZM136.76 23.184C136.76 23.4544 136.745 23.776 136.714 24.1505L137.71 24.2335C137.743 23.84 137.76 23.4896 137.76 23.184L136.76 23.184ZM136.714 24.1467C136.682 24.4974 136.65 24.8319 136.619 25.1502L137.614 25.2497C137.646 24.9281 137.678 24.5906 137.71 24.2373L136.714 24.1467ZM137.116 24.7L116.14 24.7L116.14 25.7L137.116 25.7L137.116 24.7ZM116.64 25.2L116.64 20.832L115.64 20.832L115.64 25.2L116.64 25.2ZM116.14 21.332L133.18 21.332L133.18 20.332L116.14 20.332L116.14 21.332ZM132.975 20.376L130.095 21.672L130.505 22.584L133.385 21.288L132.975 20.376ZM130.8 22.128C130.8 20.7157 130.514 19.462 129.923 18.3836L129.046 18.8644C129.542 19.77 129.8 20.8522 129.8 22.128L130.8 22.128ZM129.923 18.3836C129.335 17.3123 128.518 16.476 127.475 15.885L126.982 16.755C127.859 17.252 128.545 17.9517 129.046 18.8644L129.923 18.3836ZM127.485 15.8912C126.437 15.2623 125.226 14.956 123.868 14.956L123.868 15.956C125.071 15.956 126.099 16.2257 126.971 16.7487L127.485 15.8912ZM123.868 14.956C122.51 14.956 121.286 15.2623 120.209 15.8876L120.711 16.7524C121.618 16.2256 122.666 15.956 123.868 15.956L123.868 14.956ZM120.214 15.885C119.167 16.4783 118.349 17.3339 117.763 18.4374L118.646 18.9066C119.147 17.9621 119.834 17.2497 120.707 16.755L120.214 15.885ZM117.766 18.4316C117.173 19.5116 116.888 20.782 116.888 22.224L117.888 22.224C117.888 20.914 118.147 19.8164 118.643 18.9124L117.766 18.4316ZM116.888 22.224L116.888 23.376L117.888 23.376L117.888 22.224L116.888 22.224ZM116.888 23.376C116.888 24.8581 117.209 26.1921 117.864 27.3639L118.737 26.8761C118.175 25.8719 117.888 24.7099 117.888 23.376L116.888 23.376ZM117.873 27.3791C118.561 28.5158 119.511 29.3953 120.711 30.0126L121.169 29.1234C120.129 28.5887 119.319 27.8362 118.728 26.8608L117.873 27.3791ZM120.727 30.0201C121.958 30.6015 123.377 30.884 124.972 30.884L124.972 29.884C123.495 29.884 122.227 29.6225 121.154 29.1159L120.727 30.0201ZM124.972 30.884C126.397 30.884 127.664 30.6687 128.76 30.2232L128.384 29.2968C127.432 29.6833 126.299 29.884 124.972 29.884L124.972 30.884ZM128.755 30.2252C129.876 29.7839 130.891 29.1229 131.799 28.2482L131.105 27.5278C130.286 28.3171 129.381 28.9041 128.389 29.2948L128.755 30.2252ZM131.085 28.227L135.069 32.547L135.804 31.869L131.82 27.549L131.085 28.227ZM135.061 31.8775C133.932 33.1592 132.509 34.1562 130.782 34.8655L131.162 35.7905C133.019 35.0278 134.572 33.9448 135.811 32.5385L135.061 31.8775ZM130.789 34.8626C129.067 35.5394 127.067 35.884 124.78 35.884L124.78 36.884C127.166 36.884 129.294 36.5246 131.155 35.7934L130.789 34.8626ZM149.205 34.704L148.971 35.1459L148.977 35.1486L149.205 34.704ZM144.069 29.952L143.641 30.2103L143.644 30.2152L144.069 29.952ZM144.069 16.224L143.644 15.9608L143.643 15.9627L144.069 16.224ZM149.205 11.52L149.434 11.9646L149.439 11.9619L149.205 11.52ZM163.749 11.52L163.501 11.9541L163.507 11.9571L163.749 11.52ZM168.213 16.368L168.45 16.8085L168.862 16.587L168.669 16.1611L168.213 16.368ZM162.405 19.488L161.968 19.7298L162.207 20.1623L162.642 19.9285L162.405 19.488ZM159.861 16.8L159.61 17.2324L159.616 17.2358L159.861 16.8ZM153.141 16.8L153.387 17.2358L153.387 17.2358L153.141 16.8ZM150.693 19.248L150.26 18.9984L150.254 19.0086L150.693 19.248ZM150.693 26.928L150.254 27.1675L150.26 27.1775L150.693 26.928ZM153.141 29.376L153.387 28.9402L153.387 28.9402L153.141 29.376ZM159.861 29.424L160.102 29.8624L160.107 29.8598L159.861 29.424ZM162.405 26.688L162.645 26.249L162.204 26.0083L161.965 26.4509L162.405 26.688ZM168.213 29.856L168.667 30.0655L168.863 29.641L168.453 29.417L168.213 29.856ZM163.749 34.704L163.992 35.1411L163.997 35.1381L163.749 34.704ZM156.645 35.884C153.93 35.884 151.53 35.3383 149.434 34.2594L148.977 35.1486C151.233 36.3097 153.793 36.884 156.645 36.884L156.645 35.884ZM149.439 34.2621C147.339 33.15 145.694 31.6264 144.495 29.6888L143.644 30.2152C144.941 32.3096 146.72 33.954 148.971 35.1459L149.439 34.2621ZM144.498 29.6938C143.333 27.7624 142.745 25.5652 142.745 23.088L141.745 23.088C141.745 25.7308 142.374 28.1096 143.641 30.2102L144.498 29.6938ZM142.745 23.088C142.745 20.5774 143.333 18.3819 144.496 16.4853L143.643 15.9627C142.374 18.0341 141.745 20.4146 141.745 23.088L142.745 23.088ZM144.495 16.4872C145.693 14.5509 147.336 13.0444 149.434 11.9646L148.977 11.0754C146.723 12.2356 144.942 13.8651 143.644 15.9608L144.495 16.4872ZM149.439 11.9619C151.534 10.8528 153.932 10.292 156.645 10.292L156.645 9.292C153.791 9.292 151.228 9.8832 148.971 11.0781L149.439 11.9619ZM156.645 10.292C159.293 10.292 161.573 10.8522 163.501 11.9541L163.997 11.0859C161.894 9.88381 159.437 9.292 156.645 9.292L156.645 10.292ZM163.507 11.9571C165.428 13.0247 166.842 14.5598 167.758 16.5749L168.669 16.1611C167.665 13.9522 166.102 12.2553 163.992 11.0829L163.507 11.9571ZM167.977 15.9275L162.169 19.0475L162.642 19.9285L168.45 16.8085L167.977 15.9275ZM162.843 19.2462C162.134 17.9639 161.225 16.9935 160.107 16.3642L159.616 17.2358C160.546 17.7585 161.332 18.5801 161.968 19.7298L162.843 19.2462ZM160.112 16.3676C159.042 15.7459 157.867 15.436 156.597 15.436L156.597 16.436C157.696 16.436 158.697 16.7021 159.61 17.2324L160.112 16.3676ZM156.597 15.436C155.239 15.436 154.002 15.7424 152.896 16.3642L153.387 17.2358C154.329 16.7056 155.395 16.436 156.597 16.436L156.597 15.436ZM152.896 16.3642C151.791 16.986 150.911 17.8677 150.26 18.9985L151.127 19.4975C151.692 18.5163 152.444 17.766 153.387 17.2358L152.896 16.3642ZM150.254 19.0086C149.63 20.1542 149.329 21.5209 149.329 23.088L150.329 23.088C150.329 21.6471 150.605 20.4538 151.132 19.4874L150.254 19.0086ZM149.329 23.088C149.329 24.6551 149.63 26.0218 150.254 27.1674L151.132 26.6886C150.605 25.7222 150.329 24.5289 150.329 23.088L149.329 23.088ZM150.26 27.1775C150.911 28.3083 151.791 29.19 152.896 29.8118L153.387 28.9402C152.444 28.41 151.692 27.6597 151.127 26.6785L150.26 27.1775ZM152.896 29.8118C154.002 30.4336 155.239 30.74 156.597 30.74L156.597 29.74C155.395 29.74 154.329 29.4704 153.387 28.9402L152.896 29.8118ZM156.597 30.74C157.861 30.74 159.033 30.4487 160.102 29.8624L159.621 28.9856C158.706 29.4873 157.701 29.74 156.597 29.74L156.597 30.74ZM160.107 29.8598C161.229 29.2286 162.138 28.2391 162.846 26.925L161.965 26.4509C161.329 27.6329 160.542 28.4674 159.616 28.9882L160.107 29.8598ZM162.166 27.1269L167.974 30.2949L168.453 29.417L162.645 26.249L162.166 27.1269ZM167.759 29.6465C166.844 31.6306 165.428 33.1687 163.501 34.2699L163.997 35.1381C166.102 33.9353 167.663 32.2414 168.667 30.0655L167.759 29.6465ZM163.507 34.2669C161.577 35.3388 159.296 35.884 156.645 35.884L156.645 36.884C159.435 36.884 161.89 36.3092 163.992 35.1411L163.507 34.2669ZM178.276 34.08L177.936 34.4472L177.94 34.4506L178.276 34.08ZM175.732 4.46399L175.732 3.96399L175.232 3.96399L175.232 4.46399L175.732 4.46399ZM183.22 4.46399L183.72 4.46399L183.72 3.96399L183.22 3.96399L183.22 4.46399ZM184.084 29.568L183.721 29.912L183.73 29.9215L184.084 29.568ZM189.46 29.472L189.927 29.2936L189.687 28.6662L189.155 29.0757L189.46 29.472ZM191.476 34.752L191.765 35.16L192.081 34.9359L191.943 34.5736L191.476 34.752ZM188.692 36L188.81 36.486L188.82 36.4833L188.692 36ZM171.748 16.512L171.248 16.512L171.248 17.012L171.748 17.012L171.748 16.512ZM171.748 10.752L171.748 10.252L171.248 10.252L171.248 10.752L171.748 10.752ZM189.652 10.752L190.152 10.752L190.152 10.252L189.652 10.252L189.652 10.752ZM189.652 16.512L189.652 17.012L190.152 17.012L190.152 16.512L189.652 16.512ZM185.38 35.884C182.422 35.884 180.189 35.1379 178.611 33.7094L177.94 34.4506C179.755 36.0941 182.257 36.884 185.38 36.884L185.38 35.884ZM178.615 33.7129C177.052 32.2679 176.232 30.1008 176.232 27.12L175.232 27.12C175.232 30.2832 176.107 32.7561 177.936 34.4471L178.615 33.7129ZM176.232 27.12L176.232 4.46399L175.232 4.46399L175.232 27.12L176.232 27.12ZM175.732 4.96399L183.22 4.96399L183.22 3.96399L175.732 3.96399L175.732 4.96399ZM182.72 4.46399L182.72 27.024L183.72 27.024L183.72 4.46399L182.72 4.46399ZM182.72 27.024C182.72 28.2004 183.033 29.1858 183.721 29.9119L184.447 29.2241C183.983 28.7342 183.72 28.0236 183.72 27.024L182.72 27.024ZM183.73 29.9215C184.42 30.611 185.342 30.932 186.436 30.932L186.436 29.932C185.546 29.932 184.9 29.677 184.437 29.2144L183.73 29.9215ZM186.436 30.932C187.715 30.932 188.834 30.5841 189.765 29.8683L189.155 29.0757C188.421 29.6399 187.524 29.932 186.436 29.932L186.436 30.932ZM188.993 29.6503L191.009 34.9303L191.943 34.5736L189.927 29.2936L188.993 29.6503ZM191.187 34.344C190.476 34.8474 189.605 35.241 188.564 35.5166L188.82 36.4833C189.954 36.183 190.94 35.7446 191.765 35.16L191.187 34.344ZM188.574 35.5141C187.559 35.7602 186.494 35.884 185.38 35.884L185.38 36.884C186.569 36.884 187.713 36.7518 188.81 36.4859L188.574 35.5141ZM172.248 16.512L172.248 10.752L171.248 10.752L171.248 16.512L172.248 16.512ZM171.748 11.252L189.652 11.252L189.652 10.252L171.748 10.252L171.748 11.252ZM189.152 10.752L189.152 16.512L190.152 16.512L190.152 10.752L189.152 10.752ZM189.652 16.012L171.748 16.012L171.748 17.012L189.652 17.012L189.652 16.012ZM10.008 81.944L10.2615 81.513L10.2615 81.513L10.008 81.944ZM6.16801 77.576L5.71223 77.7818L5.71644 77.7907L6.16801 77.576ZM6.12 62.6L6.57722 62.8024L6.57722 62.8024L6.12 62.6ZM9.864 58.232L9.61049 57.801L9.61049 57.801L9.864 58.232ZM22.248 58.472L21.996 58.904L22.0046 58.9087L22.248 58.472ZM26.856 63.08L26.4206 63.3258L26.4236 63.3311L26.856 63.08ZM26.856 77.144L26.4236 76.8929L26.4206 76.8982L26.856 77.144ZM22.248 81.752L22.0046 81.3153L22.0015 81.317L22.248 81.752ZM0.456005 92.312L-0.043995 92.312L-0.0439949 92.812L0.456005 92.812L0.456005 92.312ZM0.456004 57.176L0.456004 56.676L-0.0439965 56.676L-0.0439965 57.176L0.456004 57.176ZM7.608 57.176L8.10801 57.176L8.108 56.676L7.608 56.676L7.608 57.176ZM7.60801 62.456L8.10801 62.4654L8.10801 62.456L7.60801 62.456ZM7.46401 70.136L6.96409 70.1266L6.96371 70.147L6.96499 70.1674L7.46401 70.136ZM7.94401 77.768L8.44401 77.768L8.44401 77.7523L8.44302 77.7366L7.94401 77.768ZM7.94401 92.312L7.94401 92.812L8.44401 92.812L8.44401 92.312L7.94401 92.312ZM17.736 76.376L17.4849 75.9436L17.4788 75.9473L17.736 76.376ZM20.088 73.928L19.6515 73.6841L19.6491 73.6886L20.088 73.928ZM20.088 66.248L19.6489 66.4875L19.6547 66.4975L20.088 66.248ZM17.736 63.8L17.4787 64.2288L17.4849 64.2324L17.736 63.8ZM11.064 63.8L11.3151 64.2324L11.3151 64.2324L11.064 63.8ZM8.71201 66.248L9.15095 66.4874L9.15095 66.4874L8.71201 66.248ZM8.71201 73.928L8.27008 74.162L8.27306 74.1674L8.71201 73.928ZM11.064 76.376L11.3151 75.9436L11.3151 75.9436L11.064 76.376ZM15.72 82.884C13.6196 82.884 11.8058 82.4215 10.2615 81.513L9.7545 82.375C11.4742 83.3866 13.4684 83.884 15.72 83.884L15.72 82.884ZM10.2615 81.513C8.72745 80.6107 7.51093 79.2362 6.61957 77.3613L5.71644 77.7907C6.68109 79.8198 8.02456 81.3574 9.7545 82.375L10.2615 81.513ZM6.62369 77.3702C5.7658 75.4706 5.324 73.0505 5.324 70.088L4.324 70.088C4.324 73.1416 4.77821 75.7134 5.71232 77.7818L6.62369 77.3702ZM5.324 70.088C5.324 67.0903 5.75073 64.6696 6.57722 62.8024L5.66279 62.3976C4.76128 64.4344 4.324 67.0057 4.324 70.088L5.324 70.088ZM6.57722 62.8024C7.40452 60.9333 8.58693 59.5633 10.1175 58.663L9.61049 57.801C7.87708 58.8207 6.56349 60.3627 5.66279 62.3976L6.57722 62.8024ZM10.1175 58.663C11.6586 57.7564 13.5193 57.292 15.72 57.292L15.72 56.292C13.3767 56.292 11.3334 56.7876 9.61049 57.801L10.1175 58.663ZM15.72 57.292C18.0721 57.292 20.1596 57.8326 21.9961 58.9039L22.4999 58.0401C20.4964 56.8714 18.232 56.292 15.72 56.292L15.72 57.292ZM22.0046 58.9087C23.8746 59.9511 25.3449 61.4203 26.4206 63.3258L27.2914 62.8342C26.1271 60.7718 24.5254 59.169 22.4914 58.0353L22.0046 58.9087ZM26.4236 63.3311C27.5242 65.2266 28.084 67.4729 28.084 70.088L29.084 70.088C29.084 67.3271 28.4918 64.9014 27.2884 62.8289L26.4236 63.3311ZM28.084 70.088C28.084 72.7363 27.5237 74.9983 26.4236 76.8929L27.2884 77.3951C28.4923 75.3217 29.084 72.8797 29.084 70.088L28.084 70.088ZM26.4206 76.8982C25.3449 78.8038 23.8746 80.273 22.0046 81.3153L22.4914 82.1888C24.5254 81.0551 26.1271 79.4523 27.2914 77.3898L26.4206 76.8982ZM22.0015 81.317C20.1642 82.3582 18.0746 82.884 15.72 82.884L15.72 83.884C18.2294 83.884 20.4919 83.3219 22.4945 82.187L22.0015 81.317ZM0.956005 92.312L0.956004 57.176L-0.0439965 57.176L-0.043995 92.312L0.956005 92.312ZM0.456004 57.676L7.608 57.676L7.608 56.676L0.456004 56.676L0.456004 57.676ZM7.108 57.176L7.10801 62.456L8.10801 62.456L8.10801 57.176L7.108 57.176ZM7.10809 62.4466L6.96409 70.1266L7.96392 70.1454L8.10792 62.4654L7.10809 62.4466ZM6.96499 70.1674L7.44499 77.7994L8.44302 77.7366L7.96302 70.1046L6.96499 70.1674ZM7.44401 77.768L7.44401 92.312L8.44401 92.312L8.44401 77.768L7.44401 77.768ZM7.94401 91.812L0.456005 91.812L0.456005 92.812L7.94401 92.812L7.94401 91.812ZM14.424 77.74C15.752 77.74 16.9469 77.4326 17.9933 76.8048L17.4788 75.9473C16.6051 76.4714 15.5921 76.74 14.424 76.74L14.424 77.74ZM17.9871 76.8084C19.0621 76.1842 19.9094 75.2996 20.527 74.1674L19.6491 73.6886C19.1146 74.6684 18.3939 75.4158 17.4849 75.9436L17.9871 76.8084ZM20.5245 74.1719C21.1811 72.9969 21.5 71.6299 21.5 70.088L20.5 70.088C20.5 71.4901 20.2109 72.6831 19.6515 73.6841L20.5245 74.1719ZM21.5 70.088C21.5 68.5168 21.1822 67.1463 20.5213 65.9985L19.6547 66.4975C20.2099 67.4617 20.5 68.6512 20.5 70.088L21.5 70.088ZM20.527 66.0086C19.9094 64.8764 19.0621 63.9918 17.9871 63.3676L17.4849 64.2324C18.3939 64.7602 19.1146 65.5076 19.6491 66.4874L20.527 66.0086ZM17.9933 63.3713C16.9469 62.7434 15.752 62.436 14.424 62.436L14.424 63.436C15.5921 63.436 16.6051 63.7046 17.4788 64.2288L17.9933 63.3713ZM14.424 62.436C13.0958 62.436 11.8878 62.7435 10.8129 63.3676L11.3151 64.2324C12.2242 63.7045 13.2562 63.436 14.424 63.436L14.424 62.436ZM10.8129 63.3676C9.73791 63.9918 8.89063 64.8764 8.27306 66.0086L9.15095 66.4874C9.68538 65.5076 10.4061 64.7602 11.3151 64.2324L10.8129 63.3676ZM8.27306 66.0086C7.64817 67.1542 7.34801 68.5209 7.34801 70.088L8.34801 70.088C8.34801 68.6471 8.62384 67.4538 9.15095 66.4874L8.27306 66.0086ZM7.34801 70.088C7.34801 71.6257 7.64916 72.989 8.27011 74.162L9.1539 73.6941C8.62285 72.691 8.34801 71.4943 8.34801 70.088L7.34801 70.088ZM8.27306 74.1674C8.89063 75.2997 9.73791 76.1842 10.8129 76.8084L11.3151 75.9436C10.4061 75.4158 9.68538 74.6684 9.15095 73.6886L8.27306 74.1674ZM10.8129 76.8084C11.8878 77.4325 13.0958 77.74 14.424 77.74L14.424 76.74C13.2562 76.74 12.2242 76.4715 11.3151 75.9436L10.8129 76.8084ZM35.5166 83L35.0166 83L35.0166 83.5L35.5166 83.5L35.5166 83ZM35.5166 57.176L35.5166 56.676L35.0166 56.676L35.0166 57.176L35.5166 57.176ZM42.6686 57.176L43.1686 57.176L43.1686 56.676L42.6686 56.676L42.6686 57.176ZM42.6686 64.472L42.2174 64.6874L43.1686 64.472L42.6686 64.472ZM41.6606 62.36L41.1998 62.166L41.1127 62.3728L41.2094 62.5754L41.6606 62.36ZM45.3566 58.232L45.5967 58.6707L45.6029 58.6671L45.3566 58.232ZM51.5486 56.792L52.0486 56.792L52.0486 56.292L51.5486 56.292L51.5486 56.792ZM51.5486 63.704L51.4989 64.2015L52.0486 64.2565L52.0486 63.704L51.5486 63.704ZM50.6846 63.656L50.6226 64.1521L50.6535 64.156L50.6846 64.156L50.6846 63.656ZM44.8766 65.384L45.2158 65.7514L45.2162 65.7511L44.8766 65.384ZM43.0046 83L43.0046 83.5L43.5046 83.5L43.5046 83L43.0046 83ZM36.0166 83L36.0166 57.176L35.0166 57.176L35.0166 83L36.0166 83ZM35.5166 57.676L42.6686 57.676L42.6686 56.676L35.5166 56.676L35.5166 57.676ZM42.1686 57.176L42.1686 64.472L43.1686 64.472L43.1686 57.176L42.1686 57.176ZM43.1199 64.2566L42.1119 62.1446L41.2094 62.5754L42.2174 64.6874L43.1199 64.2566ZM42.1214 62.554C42.8467 60.8315 44.0023 59.543 45.5966 58.6706L45.1166 57.7934C43.319 58.777 42.0105 60.2405 41.1998 62.166L42.1214 62.554ZM45.6029 58.6671C47.2073 57.759 49.1818 57.292 51.5486 57.292L51.5486 56.292C49.0514 56.292 46.8979 56.785 45.1103 57.7969L45.6029 58.6671ZM51.0486 56.792L51.0486 63.704L52.0486 63.704L52.0486 56.792L51.0486 56.792ZM51.5984 63.2065C51.2658 63.1732 50.9608 63.156 50.6846 63.156L50.6846 64.156C50.9205 64.156 51.1914 64.1708 51.4989 64.2015L51.5984 63.2065ZM50.7467 63.1599C50.4679 63.125 50.175 63.108 49.8686 63.108L49.8686 64.108C50.1382 64.108 50.3894 64.123 50.6226 64.1521L50.7467 63.1599ZM49.8686 63.108C47.7182 63.108 45.9254 63.7328 44.5371 65.017L45.2162 65.7511C46.3879 64.6672 47.9231 64.108 49.8686 64.108L49.8686 63.108ZM44.5375 65.0166C43.148 66.2992 42.5046 68.2682 42.5046 70.808L43.5046 70.808C43.5046 68.4198 44.1093 66.7728 45.2158 65.7514L44.5375 65.0166ZM42.5046 70.808L42.5046 83L43.5046 83L43.5046 70.808L42.5046 70.808ZM43.0046 82.5L35.5166 82.5L35.5166 83.5L43.0046 83.5L43.0046 82.5ZM62.6775 81.656L62.4381 82.095L62.4409 82.0965L62.6775 81.656ZM57.6375 76.952L57.2093 77.2103L57.2143 77.2182L57.6375 76.952ZM57.6375 63.224L57.2124 62.9608L57.2112 62.9627L57.6375 63.224ZM62.6775 58.52L62.9118 58.9617L62.9142 58.9604L62.6775 58.52ZM77.3175 58.52L77.0808 58.9605L77.086 58.9632L77.3175 58.52ZM82.3575 76.952L82.7838 77.2133L82.7857 77.2103L82.3575 76.952ZM77.3175 81.656L77.0809 81.2156L77.0809 81.2156L77.3175 81.656ZM73.3815 76.376L73.6326 76.8084L73.6326 76.8084L73.3815 76.376ZM75.7335 73.928L76.1725 74.1675L76.1754 74.162L75.7335 73.928ZM75.7335 66.248L75.2946 66.4874L75.2946 66.4874L75.7335 66.248ZM73.3815 63.8L73.1304 64.2324L73.1304 64.2324L73.3815 63.8ZM66.6615 63.8L66.9126 64.2324L66.9126 64.2324L66.6615 63.8ZM64.2615 66.248L63.8281 65.9985L63.8226 66.0086L64.2615 66.248ZM64.2615 73.928L63.8196 74.162L63.8238 74.1698L63.8282 74.1775L64.2615 73.928ZM66.6615 76.376L66.9126 75.9436L66.9126 75.9436L66.6615 76.376ZM70.0215 82.884C67.3412 82.884 64.9764 82.3236 62.9142 81.2156L62.4409 82.0965C64.6667 83.2924 67.1979 83.884 70.0215 83.884L70.0215 82.884ZM62.9169 81.2171C60.8779 80.1049 59.262 78.5955 58.0607 76.6858L57.2143 77.2182C58.509 79.2765 60.2531 80.9032 62.4381 82.095L62.9169 81.2171ZM58.0657 76.6938C56.9007 74.7625 56.3135 72.5652 56.3135 70.088L55.3135 70.088C55.3135 72.7308 55.9423 75.1096 57.2094 77.2103L58.0657 76.6938ZM56.3135 70.088C56.3135 67.5774 56.9014 65.3819 58.0638 63.4853L57.2112 62.9627C55.9417 65.0341 55.3135 67.4146 55.3135 70.088L56.3135 70.088ZM58.0626 63.4872C59.2636 61.5472 60.8774 60.0406 62.9118 58.9617L62.4433 58.0783C60.2536 59.2395 58.5075 60.8688 57.2124 62.9608L58.0626 63.4872ZM62.9142 58.9604C64.9764 57.8524 67.3412 57.292 70.0215 57.292L70.0215 56.292C67.1979 56.292 64.6667 56.8836 62.4409 58.0796L62.9142 58.9604ZM70.0215 57.292C72.6688 57.292 75.0178 57.852 77.0809 58.9604L77.5542 58.0796C75.3292 56.884 72.8142 56.292 70.0215 56.292L70.0215 57.292ZM77.086 58.9632C79.1531 60.043 80.7644 61.5336 81.9312 63.4373L82.7838 62.9147C81.5186 60.8505 79.7699 59.237 77.549 58.0768L77.086 58.9632ZM81.9312 63.4373C83.0931 65.333 83.6815 67.5442 83.6815 70.088L84.6815 70.088C84.6815 67.3839 84.0539 64.987 82.7838 62.9147L81.9312 63.4373ZM83.6815 70.088C83.6815 72.5652 83.0943 74.7625 81.9294 76.6938L82.7857 77.2103C84.0527 75.1096 84.6815 72.7308 84.6815 70.088L83.6815 70.088ZM81.9312 76.6907C80.7636 78.5957 79.1506 80.1034 77.0809 81.2156L77.5542 82.0965C79.7724 80.9046 81.5194 79.2763 82.7838 77.2133L81.9312 76.6907ZM77.0809 81.2156C75.0178 82.324 72.6688 82.884 70.0215 82.884L70.0215 83.884C72.8142 83.884 75.3292 83.292 77.5542 82.0965L77.0809 81.2156ZM70.0215 77.74C71.3497 77.74 72.5577 77.4325 73.6326 76.8084L73.1304 75.9436C72.2213 76.4715 71.1893 76.74 70.0215 76.74L70.0215 77.74ZM73.6326 76.8084C74.7076 76.1842 75.5549 75.2996 76.1725 74.1674L75.2946 73.6886C74.7601 74.6684 74.0394 75.4158 73.1304 75.9436L73.6326 76.8084ZM76.1754 74.162C76.7964 72.989 77.0975 71.6257 77.0975 70.088L76.0975 70.088C76.0975 71.4943 75.8227 72.691 75.2916 73.6941L76.1754 74.162ZM77.0975 70.088C77.0975 68.5209 76.7973 67.1542 76.1725 66.0086L75.2946 66.4874C75.8217 67.4538 76.0975 68.6471 76.0975 70.088L77.0975 70.088ZM76.1725 66.0086C75.5549 64.8764 74.7076 63.9918 73.6326 63.3676L73.1304 64.2324C74.0394 64.7602 74.7601 65.5076 75.2946 66.4874L76.1725 66.0086ZM73.6326 63.3676C72.5577 62.7435 71.3497 62.436 70.0215 62.436L70.0215 63.436C71.1893 63.436 72.2213 63.7045 73.1304 64.2324L73.6326 63.3676ZM70.0215 62.436C68.6933 62.436 67.4853 62.7435 66.4104 63.3676L66.9126 64.2324C67.8217 63.7045 68.8537 63.436 70.0215 63.436L70.0215 62.436ZM66.4104 63.3676C65.338 63.9903 64.4771 64.8715 63.8282 65.9985L64.6948 66.4975C65.262 65.5125 66.001 64.7617 66.9126 64.2324L66.4104 63.3676ZM63.8226 66.0086C63.1977 67.1542 62.8975 68.5209 62.8975 70.088L63.8975 70.088C63.8975 68.6471 64.1733 67.4538 64.7005 66.4874L63.8226 66.0086ZM62.8975 70.088C62.8975 71.6257 63.1987 72.989 63.8196 74.162L64.7034 73.6941C64.1724 72.691 63.8975 71.4943 63.8975 70.088L62.8975 70.088ZM63.8282 74.1775C64.4771 75.3045 65.338 76.1857 66.4104 76.8084L66.9126 75.9436C66.001 75.4143 65.262 74.6635 64.6948 73.6785L63.8282 74.1775ZM66.4104 76.8084C67.4853 77.4325 68.6933 77.74 70.0215 77.74L70.0215 76.74C68.8537 76.74 67.8217 76.4715 66.9126 75.9436L66.4104 76.8084ZM100.659 81.944L100.912 81.513L100.912 81.513L100.659 81.944ZM96.8186 77.576L96.3629 77.7818L96.3671 77.7907L96.8186 77.576ZM96.7706 62.6L97.2279 62.8024L97.2279 62.8024L96.7706 62.6ZM100.515 58.232L100.261 57.801L100.261 57.801L100.515 58.232ZM112.899 58.472L112.647 58.904L112.655 58.9087L112.899 58.472ZM117.507 63.08L117.071 63.3258L117.074 63.3311L117.507 63.08ZM117.507 77.144L117.074 76.8929L117.071 76.8982L117.507 77.144ZM112.899 81.752L112.655 81.3153L112.652 81.317L112.899 81.752ZM91.1066 92.312L90.6066 92.312L90.6066 92.812L91.1066 92.812L91.1066 92.312ZM91.1066 57.176L91.1066 56.676L90.6066 56.676L90.6066 57.176L91.1066 57.176ZM98.2586 57.176L98.7586 57.176L98.7586 56.676L98.2586 56.676L98.2586 57.176ZM98.2586 62.456L98.7586 62.4654L98.7586 62.456L98.2586 62.456ZM98.1146 70.136L97.6147 70.1266L97.6143 70.147L97.6156 70.1674L98.1146 70.136ZM98.5946 77.768L99.0946 77.768L99.0946 77.7523L99.0937 77.7366L98.5946 77.768ZM98.5946 92.312L98.5946 92.812L99.0946 92.812L99.0946 92.312L98.5946 92.312ZM108.387 76.376L108.136 75.9436L108.129 75.9473L108.387 76.376ZM110.739 73.928L110.302 73.6841L110.3 73.6886L110.739 73.928ZM110.739 66.248L110.3 66.4875L110.305 66.4975L110.739 66.248ZM108.387 63.8L108.129 64.2288L108.136 64.2324L108.387 63.8ZM101.715 63.8L101.966 64.2324L101.966 64.2324L101.715 63.8ZM99.3626 66.248L99.8016 66.4874L99.8016 66.4874L99.3626 66.248ZM99.3626 73.928L98.9207 74.162L98.9237 74.1674L99.3626 73.928ZM101.715 76.376L101.966 75.9436L101.966 75.9436L101.715 76.376ZM106.371 82.884C104.27 82.884 102.456 82.4214 100.912 81.513L100.405 82.375C102.125 83.3866 104.119 83.884 106.371 83.884L106.371 82.884ZM100.912 81.513C99.3781 80.6106 98.1616 79.2362 97.2702 77.3613L96.3671 77.7907C97.3317 79.8198 98.6752 81.3574 100.405 82.375L100.912 81.513ZM97.2743 77.3702C96.4164 75.4706 95.9746 73.0504 95.9746 70.088L94.9746 70.088C94.9746 73.1416 95.4288 75.7134 96.363 77.7818L97.2743 77.3702ZM95.9746 70.088C95.9746 67.0903 96.4014 64.6696 97.2279 62.8024L96.3134 62.3976C95.4119 64.4344 94.9746 67.0057 94.9746 70.088L95.9746 70.088ZM97.2279 62.8024C98.0552 60.9333 99.2376 59.5633 100.768 58.663L100.261 57.801C98.5277 58.8207 97.2141 60.3627 96.3134 62.3976L97.2279 62.8024ZM100.768 58.663C102.309 57.7564 104.17 57.292 106.371 57.292L106.371 56.292C104.027 56.292 101.984 56.7876 100.261 57.801L100.768 58.663ZM106.371 57.292C108.723 57.292 110.81 57.8326 112.647 58.9039L113.151 58.0401C111.147 56.8714 108.883 56.292 106.371 56.292L106.371 57.292ZM112.655 58.9087C114.525 59.9511 115.996 61.4202 117.071 63.3258L117.942 62.8342C116.778 60.7718 115.176 59.169 113.142 58.0353L112.655 58.9087ZM117.074 63.3311C118.175 65.2266 118.735 67.4729 118.735 70.088L119.735 70.088C119.735 67.3271 119.142 64.9014 117.939 62.8289L117.074 63.3311ZM118.735 70.088C118.735 72.7363 118.174 74.9983 117.074 76.8929L117.939 77.3951C119.143 75.3217 119.735 72.8797 119.735 70.088L118.735 70.088ZM117.071 76.8982C115.996 78.8038 114.525 80.273 112.655 81.3153L113.142 82.1887C115.176 81.0551 116.778 79.4523 117.942 77.3898L117.071 76.8982ZM112.652 81.317C110.815 82.3582 108.725 82.884 106.371 82.884L106.371 83.884C108.88 83.884 111.142 83.3219 113.145 82.187L112.652 81.317ZM91.6066 92.312L91.6066 57.176L90.6066 57.176L90.6066 92.312L91.6066 92.312ZM91.1066 57.676L98.2586 57.676L98.2586 56.676L91.1066 56.676L91.1066 57.676ZM97.7586 57.176L97.7586 62.456L98.7586 62.456L98.7586 57.176L97.7586 57.176ZM97.7587 62.4466L97.6147 70.1266L98.6146 70.1454L98.7586 62.4654L97.7587 62.4466ZM97.6156 70.1674L98.0956 77.7994L99.0937 77.7366L98.6137 70.1046L97.6156 70.1674ZM98.0946 77.768L98.0946 92.312L99.0946 92.312L99.0946 77.768L98.0946 77.768ZM98.5946 91.812L91.1066 91.812L91.1066 92.812L98.5946 92.812L98.5946 91.812ZM105.075 77.74C106.403 77.74 107.598 77.4326 108.644 76.8048L108.129 75.9473C107.256 76.4714 106.243 76.74 105.075 76.74L105.075 77.74ZM108.638 76.8084C109.713 76.1842 110.56 75.2996 111.178 74.1674L110.3 73.6886C109.765 74.6684 109.045 75.4158 108.136 75.9436L108.638 76.8084ZM111.175 74.1719C111.832 72.9969 112.151 71.6299 112.151 70.088L111.151 70.088C111.151 71.4901 110.862 72.6831 110.302 73.6841L111.175 74.1719ZM112.151 70.088C112.151 68.5168 111.833 67.1463 111.172 65.9985L110.305 66.4975C110.86 67.4617 111.151 68.6512 111.151 70.088L112.151 70.088ZM111.178 66.0086C110.56 64.8764 109.713 63.9918 108.638 63.3676L108.136 64.2324C109.045 64.7602 109.765 65.5076 110.3 66.4874L111.178 66.0086ZM108.644 63.3713C107.598 62.7434 106.403 62.436 105.075 62.436L105.075 63.436C106.243 63.436 107.256 63.7046 108.129 64.2288L108.644 63.3713ZM105.075 62.436C103.746 62.436 102.538 62.7435 101.464 63.3676L101.966 64.2324C102.875 63.7045 103.907 63.436 105.075 63.436L105.075 62.436ZM101.464 63.3676C100.389 63.9918 99.5413 64.8764 98.9237 66.0086L99.8016 66.4874C100.336 65.5076 101.057 64.7602 101.966 64.2324L101.464 63.3676ZM98.9237 66.0086C98.2988 67.1542 97.9986 68.5209 97.9986 70.088L98.9986 70.088C98.9986 68.6471 99.2745 67.4538 99.8016 66.4874L98.9237 66.0086ZM97.9986 70.088C97.9986 71.6257 98.2998 72.989 98.9207 74.1619L99.8045 73.6941C99.2735 72.691 98.9986 71.4943 98.9986 70.088L97.9986 70.088ZM98.9237 74.1674C99.5413 75.2996 100.389 76.1842 101.464 76.8084L101.966 75.9436C101.057 75.4158 100.336 74.6684 99.8016 73.6886L98.9237 74.1674ZM101.464 76.8084C102.538 77.4325 103.746 77.74 105.075 77.74L105.075 76.74C103.907 76.74 102.875 76.4715 101.966 75.9436L101.464 76.8084ZM131.111 81.656L130.872 82.095L130.875 82.0965L131.111 81.656ZM126.071 76.952L125.643 77.2103L125.648 77.2182L126.071 76.952ZM126.071 63.224L125.646 62.9608L125.645 62.9627L126.071 63.224ZM131.111 58.52L131.346 58.9617L131.348 58.9604L131.111 58.52ZM145.751 58.52L145.515 58.9605L145.52 58.9632L145.751 58.52ZM150.791 76.952L151.218 77.2133L151.219 77.2103L150.791 76.952ZM145.751 81.656L145.515 81.2156L145.515 81.2156L145.751 81.656ZM141.815 76.376L142.066 76.8084L142.066 76.8084L141.815 76.376ZM144.167 73.928L144.606 74.1674L144.609 74.1619L144.167 73.928ZM144.167 66.248L143.728 66.4874L143.728 66.4874L144.167 66.248ZM141.815 63.8L141.564 64.2324L141.564 64.2324L141.815 63.8ZM135.095 63.8L135.346 64.2324L135.346 64.2324L135.095 63.8ZM132.695 66.248L132.262 65.9985L132.256 66.0086L132.695 66.248ZM132.695 73.928L132.253 74.1619L132.258 74.1698L132.262 74.1775L132.695 73.928ZM135.095 76.376L135.346 75.9436L135.346 75.9436L135.095 76.376ZM138.455 82.884C135.775 82.884 133.41 82.3236 131.348 81.2156L130.875 82.0965C133.1 83.2924 135.632 83.884 138.455 83.884L138.455 82.884ZM131.351 81.2171C129.312 80.1049 127.696 78.5955 126.494 76.6858L125.648 77.2182C126.943 79.2765 128.687 80.9032 130.872 82.095L131.351 81.2171ZM126.499 76.6938C125.334 74.7625 124.747 72.5652 124.747 70.088L123.747 70.088C123.747 72.7308 124.376 75.1096 125.643 77.2103L126.499 76.6938ZM124.747 70.088C124.747 67.5774 125.335 65.3819 126.498 63.4853L125.645 62.9627C124.375 65.0341 123.747 67.4146 123.747 70.088L124.747 70.088ZM126.496 63.4872C127.697 61.5472 129.311 60.0406 131.346 58.9617L130.877 58.0783C128.687 59.2394 126.941 60.8688 125.646 62.9608L126.496 63.4872ZM131.348 58.9604C133.41 57.8524 135.775 57.292 138.455 57.292L138.455 56.292C135.632 56.292 133.1 56.8836 130.875 58.0796L131.348 58.9604ZM138.455 57.292C141.103 57.292 143.452 57.852 145.515 58.9604L145.988 58.0796C143.763 56.884 141.248 56.292 138.455 56.292L138.455 57.292ZM145.52 58.9632C147.587 60.043 149.198 61.5335 150.365 63.4373L151.218 62.9147C149.952 60.8505 148.204 59.237 145.983 58.0768L145.52 58.9632ZM150.365 63.4373C151.527 65.333 152.115 67.5442 152.115 70.088L153.115 70.088C153.115 67.3838 152.488 64.987 151.218 62.9147L150.365 63.4373ZM152.115 70.088C152.115 72.5652 151.528 74.7624 150.363 76.6938L151.219 77.2103C152.487 75.1096 153.115 72.7308 153.115 70.088L152.115 70.088ZM150.365 76.6907C149.197 78.5957 147.584 80.1034 145.515 81.2156L145.988 82.0965C148.206 80.9046 149.953 79.2763 151.218 77.2133L150.365 76.6907ZM145.515 81.2156C143.452 82.324 141.103 82.884 138.455 82.884L138.455 83.884C141.248 83.884 143.763 83.292 145.988 82.0965L145.515 81.2156ZM138.455 77.74C139.783 77.74 140.991 77.4325 142.066 76.8084L141.564 75.9436C140.655 76.4715 139.623 76.74 138.455 76.74L138.455 77.74ZM142.066 76.8084C143.141 76.1842 143.989 75.2996 144.606 74.1674L143.728 73.6886C143.194 74.6684 142.473 75.4158 141.564 75.9436L142.066 76.8084ZM144.609 74.1619C145.23 72.989 145.531 71.6257 145.531 70.088L144.531 70.088C144.531 71.4943 144.256 72.691 143.725 73.6941L144.609 74.1619ZM145.531 70.088C145.531 68.5209 145.231 67.1542 144.606 66.0086L143.728 66.4874C144.255 67.4538 144.531 68.6471 144.531 70.088L145.531 70.088ZM144.606 66.0086C143.989 64.8764 143.141 63.9918 142.066 63.3676L141.564 64.2324C142.473 64.7602 143.194 65.5076 143.728 66.4874L144.606 66.0086ZM142.066 63.3676C140.991 62.7435 139.783 62.436 138.455 62.436L138.455 63.436C139.623 63.436 140.655 63.7045 141.564 64.2324L142.066 63.3676ZM138.455 62.436C137.127 62.436 135.919 62.7435 134.844 63.3676L135.346 64.2324C136.255 63.7045 137.287 63.436 138.455 63.436L138.455 62.436ZM134.844 63.3676C133.772 63.9903 132.911 64.8715 132.262 65.9985L133.129 66.4975C133.696 65.5125 134.435 64.7617 135.346 64.2324L134.844 63.3676ZM132.256 66.0086C131.631 67.1542 131.331 68.5209 131.331 70.088L132.331 70.088C132.331 68.6471 132.607 67.4538 133.134 66.4874L132.256 66.0086ZM131.331 70.088C131.331 71.6257 131.632 72.989 132.253 74.1619L133.137 73.6941C132.606 72.691 132.331 71.4943 132.331 70.088L131.331 70.088ZM132.262 74.1775C132.911 75.3045 133.772 76.1857 134.844 76.8084L135.346 75.9436C134.435 75.4143 133.696 74.6635 133.129 73.6785L132.262 74.1775ZM134.844 76.8084C135.919 77.4325 137.127 77.74 138.455 77.74L138.455 76.74C137.287 76.74 136.255 76.4715 135.346 75.9436L134.844 76.8084ZM159.54 83L159.04 83L159.04 83.5L159.54 83.5L159.54 83ZM159.54 57.176L159.54 56.676L159.04 56.676L159.04 57.176L159.54 57.176ZM166.692 57.176L167.192 57.176L167.192 56.676L166.692 56.676L166.692 57.176ZM166.692 64.472L166.241 64.6874L167.192 64.472L166.692 64.472ZM165.684 62.36L165.224 62.166L165.136 62.3728L165.233 62.5754L165.684 62.36ZM169.38 58.232L169.62 58.6707L169.627 58.6671L169.38 58.232ZM175.572 56.792L176.072 56.792L176.072 56.292L175.572 56.292L175.572 56.792ZM175.572 63.704L175.523 64.2015L176.072 64.2565L176.072 63.704L175.572 63.704ZM174.708 63.656L174.646 64.1521L174.677 64.156L174.708 64.156L174.708 63.656ZM168.9 65.384L169.24 65.7514L169.24 65.7511L168.9 65.384ZM167.028 83L167.028 83.5L167.528 83.5L167.528 83L167.028 83ZM160.04 83L160.04 57.176L159.04 57.176L159.04 83L160.04 83ZM159.54 57.676L166.692 57.676L166.692 56.676L159.54 56.676L159.54 57.676ZM166.192 57.176L166.192 64.472L167.192 64.472L167.192 57.176L166.192 57.176ZM167.144 64.2566L166.136 62.1446L165.233 62.5754L166.241 64.6874L167.144 64.2566ZM166.145 62.554C166.87 60.8315 168.026 59.543 169.62 58.6706L169.14 57.7934C167.343 58.777 166.034 60.2405 165.224 62.166L166.145 62.554ZM169.627 58.6671C171.231 57.759 173.206 57.292 175.572 57.292L175.572 56.292C173.075 56.292 170.922 56.785 169.134 57.7969L169.627 58.6671ZM175.072 56.792L175.072 63.704L176.072 63.704L176.072 56.792L175.072 56.792ZM175.622 63.2065C175.29 63.1732 174.985 63.156 174.708 63.156L174.708 64.156C174.944 64.156 175.215 64.1708 175.523 64.2015L175.622 63.2065ZM174.77 63.1599C174.492 63.125 174.199 63.108 173.892 63.108L173.892 64.108C174.162 64.108 174.413 64.123 174.646 64.1521L174.77 63.1599ZM173.892 63.108C171.742 63.108 169.949 63.7328 168.561 65.017L169.24 65.7511C170.412 64.6672 171.947 64.108 173.892 64.108L173.892 63.108ZM168.561 65.0166C167.172 66.2992 166.528 68.2682 166.528 70.808L167.528 70.808C167.528 68.4198 168.133 66.7728 169.24 65.7514L168.561 65.0166ZM166.528 70.808L166.528 83L167.528 83L167.528 70.808L166.528 70.808ZM167.028 82.5L159.54 82.5L159.54 83.5L167.028 83.5L167.028 82.5ZM186.291 81.08L185.952 81.4472L185.956 81.4506L186.291 81.08ZM183.747 51.464L183.747 50.964L183.247 50.964L183.247 51.464L183.747 51.464ZM191.235 51.464L191.735 51.464L191.735 50.964L191.235 50.964L191.235 51.464ZM192.099 76.568L191.736 76.912L191.746 76.9216L192.099 76.568ZM197.475 76.472L197.943 76.2937L197.703 75.6662L197.171 76.0757L197.475 76.472ZM199.491 81.752L199.78 82.16L200.097 81.9359L199.959 81.5737L199.491 81.752ZM196.707 83L196.825 83.486L196.835 83.4834L196.707 83ZM179.763 63.512L179.263 63.512L179.263 64.012L179.763 64.012L179.763 63.512ZM179.763 57.752L179.763 57.252L179.263 57.252L179.263 57.752L179.763 57.752ZM197.667 57.752L198.167 57.752L198.167 57.252L197.667 57.252L197.667 57.752ZM197.667 63.512L197.667 64.012L198.167 64.012L198.167 63.512L197.667 63.512ZM193.395 82.884C190.438 82.884 188.204 82.1379 186.627 80.7094L185.956 81.4506C187.77 83.0941 190.273 83.884 193.395 83.884L193.395 82.884ZM186.631 80.7129C185.068 79.2679 184.247 77.1008 184.247 74.12L183.247 74.12C183.247 77.2832 184.123 79.7561 185.952 81.4471L186.631 80.7129ZM184.247 74.12L184.247 51.464L183.247 51.464L183.247 74.12L184.247 74.12ZM183.747 51.964L191.235 51.964L191.235 50.964L183.747 50.964L183.747 51.964ZM190.735 51.464L190.735 74.024L191.735 74.024L191.735 51.464L190.735 51.464ZM190.735 74.024C190.735 75.2004 191.049 76.1858 191.736 76.9119L192.462 76.2241C191.998 75.7342 191.735 75.0236 191.735 74.024L190.735 74.024ZM191.746 76.9216C192.435 77.611 193.358 77.932 194.451 77.932L194.451 76.932C193.561 76.932 192.915 76.677 192.453 76.2144L191.746 76.9216ZM194.451 77.932C195.731 77.932 196.85 77.5841 197.78 76.8683L197.171 76.0757C196.437 76.6399 195.54 76.932 194.451 76.932L194.451 77.932ZM197.008 76.6504L199.024 81.9304L199.959 81.5737L197.943 76.2937L197.008 76.6504ZM199.202 81.344C198.492 81.8474 197.621 82.241 196.579 82.5166L196.835 83.4834C197.97 83.183 198.955 82.7446 199.78 82.16L199.202 81.344ZM196.59 82.5141C195.574 82.7602 194.51 82.884 193.395 82.884L193.395 83.884C194.585 83.884 195.728 83.7518 196.825 83.4859L196.59 82.5141ZM180.263 63.512L180.263 57.752L179.263 57.752L179.263 63.512L180.263 63.512ZM179.763 58.252L197.667 58.252L197.667 57.252L179.763 57.252L179.763 58.252ZM197.167 57.752L197.167 63.512L198.167 63.512L198.167 57.752L197.167 57.752ZM197.667 63.012L179.763 63.012L179.763 64.012L197.667 64.012L197.667 63.012ZM205.615 83L205.115 83L205.115 83.5L205.615 83.5L205.615 83ZM205.615 57.176L205.615 56.676L205.115 56.676L205.115 57.176L205.615 57.176ZM213.103 57.176L213.603 57.176L213.603 56.676L213.103 56.676L213.103 57.176ZM213.103 83L213.103 83.5L213.603 83.5L213.603 83L213.103 83ZM205.999 52.376L205.659 52.7429L205.659 52.7429L205.999 52.376ZM205.999 46.424L206.338 46.7909L206.338 46.7909L205.999 46.424ZM212.719 46.376L212.387 46.7498L212.395 46.7566L212.719 46.376ZM212.719 52.376L213.065 52.7364L213.066 52.7362L212.719 52.376ZM206.115 83L206.115 57.176L205.115 57.176L205.115 83L206.115 83ZM205.615 57.676L213.103 57.676L213.103 56.676L205.615 56.676L205.615 57.676ZM212.603 57.176L212.603 83L213.603 83L213.603 57.176L212.603 57.176ZM213.103 82.5L205.615 82.5L205.615 83.5L213.103 83.5L213.103 82.5ZM209.359 53.076C208.086 53.076 207.095 52.7093 206.338 52.0091L205.659 52.7429C206.631 53.6427 207.879 54.076 209.359 54.076L209.359 53.076ZM206.338 52.0091C205.577 51.3043 205.203 50.4456 205.203 49.4L204.203 49.4C204.203 50.7224 204.692 51.8477 205.659 52.7429L206.338 52.0091ZM205.203 49.4C205.203 48.3544 205.577 47.4957 206.338 46.7909L205.659 46.0571C204.692 46.9523 204.203 48.0776 204.203 49.4L205.203 49.4ZM206.338 46.7909C207.095 46.0907 208.086 45.724 209.359 45.724L209.359 44.724C207.879 44.724 206.631 45.1573 205.659 46.0571L206.338 46.7909ZM209.359 45.724C210.637 45.724 211.631 46.078 212.387 46.7497L213.051 46.0023C212.079 45.138 210.833 44.724 209.359 44.724L209.359 45.724ZM212.395 46.7566C213.142 47.393 213.515 48.2113 213.515 49.256L214.515 49.256C214.515 47.9327 214.024 46.831 213.043 45.9954L212.395 46.7566ZM213.515 49.256C213.515 50.3743 213.134 51.2823 212.372 52.0158L213.066 52.7362C214.032 51.8057 214.515 50.6337 214.515 49.256L213.515 49.256ZM212.372 52.0156C211.653 52.7071 210.668 53.076 209.359 53.076L209.359 54.076C210.866 54.076 212.121 53.6448 213.065 52.7364L212.372 52.0156ZM226.916 81.656L226.677 82.095L226.68 82.0964L226.916 81.656ZM221.876 76.952L221.448 77.2103L221.453 77.2182L221.876 76.952ZM221.876 63.224L221.451 62.9608L221.45 62.9627L221.876 63.224ZM226.916 58.52L227.151 58.9617L227.153 58.9604L226.916 58.52ZM241.556 58.52L241.32 58.9605L241.325 58.9632L241.556 58.52ZM246.596 76.952L247.023 77.2133L247.024 77.2102L246.596 76.952ZM241.556 81.656L241.32 81.2156L241.32 81.2156L241.556 81.656ZM237.62 76.376L237.871 76.8084L237.871 76.8084L237.62 76.376ZM239.972 73.928L240.411 74.1674L240.414 74.1619L239.972 73.928ZM239.972 66.248L239.533 66.4874L239.533 66.4874L239.972 66.248ZM237.62 63.8L237.369 64.2324L237.369 64.2324L237.62 63.8ZM230.9 63.8L231.151 64.2324L231.151 64.2324L230.9 63.8ZM228.5 66.248L228.067 65.9985L228.061 66.0086L228.5 66.248ZM228.5 73.928L228.058 74.1619L228.063 74.1698L228.067 74.1775L228.5 73.928ZM230.9 76.376L231.151 75.9436L231.151 75.9436L230.9 76.376ZM234.26 82.884C231.58 82.884 229.215 82.3236 227.153 81.2156L226.68 82.0964C228.905 83.2924 231.437 83.884 234.26 83.884L234.26 82.884ZM227.156 81.2171C225.117 80.1048 223.501 78.5955 222.3 76.6858L221.453 77.2182C222.748 79.2765 224.492 80.9032 226.677 82.0949L227.156 81.2171ZM222.304 76.6938C221.14 74.7624 220.552 72.5652 220.552 70.088L219.552 70.088C219.552 72.7308 220.181 75.1096 221.448 77.2102L222.304 76.6938ZM220.552 70.088C220.552 67.5774 221.14 65.3819 222.303 63.4853L221.45 62.9627C220.18 65.0341 219.552 67.4146 219.552 70.088L220.552 70.088ZM222.301 63.4872C223.502 61.5472 225.116 60.0405 227.151 58.9617L226.682 58.0783C224.492 59.2394 222.746 60.8688 221.451 62.9608L222.301 63.4872ZM227.153 58.9604C229.215 57.8524 231.58 57.292 234.26 57.292L234.26 56.292C231.437 56.292 228.905 56.8836 226.68 58.0795L227.153 58.9604ZM234.26 57.292C236.908 57.292 239.257 57.852 241.32 58.9604L241.793 58.0795C239.568 56.884 237.053 56.292 234.26 56.292L234.26 57.292ZM241.325 58.9632C243.392 60.043 245.003 61.5335 246.17 63.4373L247.023 62.9147C245.757 60.8504 244.009 59.237 241.788 58.0768L241.325 58.9632ZM246.17 63.4373C247.332 65.333 247.92 67.5442 247.92 70.088L248.92 70.088C248.92 67.3838 248.293 64.987 247.023 62.9147L246.17 63.4373ZM247.92 70.088C247.92 72.5652 247.333 74.7624 246.168 76.6938L247.024 77.2102C248.292 75.1096 248.92 72.7308 248.92 70.088L247.92 70.088ZM246.17 76.6907C245.002 78.5957 243.389 80.1034 241.32 81.2156L241.793 82.0964C244.011 80.9046 245.758 79.2763 247.023 77.2133L246.17 76.6907ZM241.32 81.2156C239.257 82.324 236.908 82.884 234.26 82.884L234.26 83.884C237.053 83.884 239.568 83.292 241.793 82.0964L241.32 81.2156ZM234.26 77.74C235.588 77.74 236.796 77.4325 237.871 76.8084L237.369 75.9436C236.46 76.4715 235.428 76.74 234.26 76.74L234.26 77.74ZM237.871 76.8084C238.946 76.1842 239.794 75.2996 240.411 74.1674L239.533 73.6886C238.999 74.6684 238.278 75.4158 237.369 75.9436L237.871 76.8084ZM240.414 74.1619C241.035 72.989 241.336 71.6257 241.336 70.088L240.336 70.088C240.336 71.4943 240.061 72.691 239.53 73.6941L240.414 74.1619ZM241.336 70.088C241.336 68.5209 241.036 67.1542 240.411 66.0086L239.533 66.4874C240.06 67.4538 240.336 68.6471 240.336 70.088L241.336 70.088ZM240.411 66.0086C239.794 64.8764 238.946 63.9918 237.871 63.3676L237.369 64.2324C238.278 64.7602 238.999 65.5076 239.533 66.4874L240.411 66.0086ZM237.871 63.3676C236.796 62.7435 235.588 62.436 234.26 62.436L234.26 63.436C235.428 63.436 236.46 63.7045 237.369 64.2324L237.871 63.3676ZM234.26 62.436C232.932 62.436 231.724 62.7435 230.649 63.3676L231.151 64.2324C232.06 63.7045 233.092 63.436 234.26 63.436L234.26 62.436ZM230.649 63.3676C229.577 63.9903 228.716 64.8715 228.067 65.9985L228.934 66.4975C229.501 65.5125 230.24 64.7617 231.151 64.2324L230.649 63.3676ZM228.061 66.0086C227.436 67.1542 227.136 68.5209 227.136 70.088L228.136 70.088C228.136 68.6471 228.412 67.4538 228.939 66.4874L228.061 66.0086ZM227.136 70.088C227.136 71.6257 227.437 72.989 228.058 74.1619L228.942 73.6941C228.411 72.691 228.136 71.4943 228.136 70.088L227.136 70.088ZM228.067 74.1775C228.716 75.3045 229.577 76.1857 230.649 76.8084L231.151 75.9436C230.24 75.4143 229.501 74.6635 228.934 73.6785L228.067 74.1775ZM230.649 76.8084C231.724 77.4325 232.932 77.74 234.26 77.74L234.26 76.74C233.092 76.74 232.06 76.4715 231.151 75.9436L230.649 76.8084ZM276.513 58.04L276.283 58.4837L276.293 58.489L276.513 58.04ZM280.353 61.784L279.915 62.024L279.917 62.0275L280.353 61.784ZM281.745 83L281.745 83.5L282.245 83.5L282.245 83L281.745 83ZM274.257 83L273.757 83L273.757 83.5L274.257 83.5L274.257 83ZM272.865 64.76L272.494 65.0952L272.5 65.1016L272.865 64.76ZM265.809 64.04L266.039 64.4841L266.045 64.4812L265.809 64.04ZM263.601 66.296L263.16 66.0613L263.154 66.0724L263.601 66.296ZM262.833 83L262.833 83.5L263.333 83.5L263.333 83L262.833 83ZM255.345 83L254.845 83L254.845 83.5L255.345 83.5L255.345 83ZM255.345 57.176L255.345 56.676L254.845 56.676L254.845 57.176L255.345 57.176ZM262.497 57.176L262.997 57.176L262.997 56.676L262.497 56.676L262.497 57.176ZM262.497 64.328L262.073 64.5921L262.997 66.078L262.997 64.328L262.497 64.328ZM261.153 62.168L260.713 61.9314L260.576 62.1864L260.729 62.4321L261.153 62.168ZM265.137 58.184L265.374 58.6245L265.374 58.6245L265.137 58.184ZM271.041 57.292C273.02 57.292 274.763 57.6934 276.283 58.4836L276.744 57.5964C275.064 56.7226 273.159 56.292 271.041 56.292L271.041 57.292ZM276.293 58.489C277.827 59.2406 279.033 60.4124 279.915 62.024L280.792 61.544C279.818 59.7635 278.464 58.4394 276.733 57.591L276.293 58.489ZM279.917 62.0275C280.79 63.5942 281.245 65.6466 281.245 68.216L282.245 68.216C282.245 65.5374 281.772 63.3017 280.79 61.5405L279.917 62.0275ZM281.245 68.216L281.245 83L282.245 83L282.245 68.216L281.245 68.216ZM281.745 82.5L274.257 82.5L274.257 83.5L281.745 83.5L281.745 82.5ZM274.757 83L274.757 69.368L273.757 69.368L273.757 83L274.757 83ZM274.757 69.368C274.757 67.2265 274.281 65.5417 273.231 64.4184L272.5 65.1016C273.305 65.9622 273.757 67.3495 273.757 69.368L274.757 69.368ZM273.236 64.4249C272.223 63.3031 270.794 62.772 269.025 62.772L269.025 63.772C270.585 63.772 271.716 64.2329 272.494 65.0951L273.236 64.4249ZM269.025 62.772C267.767 62.772 266.613 63.0449 265.574 63.5988L266.045 64.4812C266.926 64.0111 267.916 63.772 269.025 63.772L269.025 62.772ZM265.58 63.5959C264.552 64.1277 263.746 64.9579 263.16 66.0614L264.043 66.5306C264.545 65.586 265.211 64.9123 266.039 64.4841L265.58 63.5959ZM263.154 66.0724C262.596 67.1878 262.333 68.5834 262.333 70.232L263.333 70.232C263.333 68.6806 263.582 67.4522 264.049 66.5196L263.154 66.0724ZM262.333 70.232L262.333 83L263.333 83L263.333 70.232L262.333 70.232ZM262.833 82.5L255.345 82.5L255.345 83.5L262.833 83.5L262.833 82.5ZM255.845 83L255.845 57.176L254.845 57.176L254.845 83L255.845 83ZM255.345 57.676L262.497 57.676L262.497 56.676L255.345 56.676L255.345 57.676ZM261.997 57.176L261.997 64.328L262.997 64.328L262.997 57.176L261.997 57.176ZM262.922 64.0638L261.578 61.9038L260.729 62.4321L262.073 64.5921L262.922 64.0638ZM261.594 62.4046C262.475 60.7631 263.733 59.506 265.374 58.6245L264.901 57.7435C263.086 58.718 261.687 60.1169 260.713 61.9314L261.594 62.4046ZM265.374 58.6245C267.02 57.7402 268.905 57.292 271.041 57.292L271.041 56.292C268.761 56.292 266.71 56.7717 264.901 57.7435L265.374 58.6245ZM292.757 82.616L292.627 83.0988L292.636 83.1011L292.757 82.616ZM287.957 80.6L287.503 80.3894L287.324 80.7758L287.677 81.0143L287.957 80.6ZM290.453 75.224L290.717 74.7994L290.237 74.5012L289.999 75.0134L290.453 75.224ZM294.629 77.048L294.485 77.527L294.497 77.5302L294.629 77.048ZM303.077 77.096L302.831 76.6606L302.823 76.6655L303.077 77.096ZM303.317 74.024L303.063 74.455L303.078 74.4636L303.093 74.4712L303.317 74.024ZM301.109 73.304L301.024 73.7967L301.024 73.7967L301.109 73.304ZM298.037 72.824L297.964 73.3187L297.966 73.319L298.037 72.824ZM294.725 72.2L294.6 72.6844L294.614 72.6874L294.725 72.2ZM291.653 70.952L291.906 70.5206L291.906 70.5206L291.653 70.952ZM289.397 68.744L288.965 68.9969L288.972 69.0077L289.397 68.744ZM289.973 60.824L289.577 60.5191L289.572 60.5256L289.973 60.824ZM294.101 57.896L294.284 58.3614L294.291 58.3585L294.101 57.896ZM305.909 57.368L306.012 56.8787L306.012 56.8787L305.909 57.368ZM310.469 59.048L310.922 59.2601L311.112 58.853L310.728 58.6202L310.469 59.048ZM307.973 64.376L307.719 64.8067L308.192 65.0859L308.426 64.5881L307.973 64.376ZM304.181 62.888L304.068 63.3752L304.076 63.3768L304.083 63.3783L304.181 62.888ZM296.885 63.128L296.633 62.6961L296.633 62.6961L296.885 63.128ZM296.549 66.296L296.295 66.7271L296.306 66.7331L296.549 66.296ZM301.829 67.592L301.756 68.0867L301.764 68.0878L301.772 68.0888L301.829 67.592ZM305.189 68.216L305.313 67.7317L305.313 67.7317L305.189 68.216ZM308.213 69.464L307.953 69.8914L307.962 69.8968L307.971 69.9018L308.213 69.464ZM310.469 71.624L310.044 71.8877L310.048 71.8944L310.469 71.624ZM309.893 79.448L310.285 79.7578L310.289 79.7529L309.893 79.448ZM305.717 82.328L305.537 81.8615L305.534 81.8626L305.717 82.328ZM299.141 82.884C296.972 82.884 294.885 82.6326 292.878 82.1309L292.636 83.1011C294.725 83.6234 296.894 83.884 299.141 83.884L299.141 82.884ZM292.887 82.1333C290.902 81.5976 289.359 80.9441 288.237 80.1857L287.677 81.0143C288.923 81.8559 290.58 82.5464 292.627 83.0987L292.887 82.1333ZM288.41 80.8106L290.906 75.4346L289.999 75.0134L287.503 80.3894L288.41 80.8106ZM290.189 75.6486C291.417 76.412 292.851 77.0366 294.485 77.5269L294.773 76.5691C293.207 76.0994 291.857 75.508 290.717 74.7994L290.189 75.6486ZM294.497 77.5302C296.168 77.9891 297.813 78.22 299.429 78.22L299.429 77.22C297.909 77.22 296.354 77.0029 294.761 76.5658L294.497 77.5302ZM299.429 78.22C301.167 78.22 302.503 78.0161 303.331 77.5265L302.823 76.6655C302.243 77.0079 301.147 77.22 299.429 77.22L299.429 78.22ZM303.323 77.5313C304.188 77.0424 304.681 76.3143 304.681 75.368L303.681 75.368C303.681 75.8937 303.438 76.3176 302.831 76.6607L303.323 77.5313ZM304.681 75.368C304.681 74.9821 304.588 74.6212 304.386 74.3056C304.184 73.9917 303.892 73.7525 303.541 73.5768L303.093 74.4712C303.318 74.5834 303.458 74.7123 303.544 74.8464C303.629 74.9788 303.681 75.1459 303.681 75.368L304.681 75.368ZM303.57 73.593C302.955 73.2313 302.155 72.977 301.194 72.8113L301.024 73.7967C301.919 73.951 302.59 74.1767 303.063 74.455L303.57 73.593ZM301.194 72.8113C300.26 72.6503 299.231 72.4896 298.108 72.329L297.966 73.319C299.082 73.4784 300.102 73.6377 301.024 73.7967L301.194 72.8113ZM298.11 72.3293C297.035 72.1713 295.944 71.9658 294.836 71.7126L294.614 72.6874C295.746 72.9462 296.863 73.1567 297.964 73.3187L298.11 72.3293ZM294.849 71.7157C293.771 71.4385 292.791 71.0394 291.906 70.5206L291.4 71.3833C292.371 71.9526 293.439 72.3855 294.6 72.6842L294.849 71.7157ZM291.906 70.5206C291.049 70.0184 290.356 69.3404 289.822 68.4803L288.972 69.0077C289.59 70.0036 290.401 70.7976 291.4 71.3833L291.906 70.5206ZM289.828 68.4911C289.343 67.663 289.081 66.5585 289.081 65.144L288.081 65.144C288.081 66.6735 288.363 67.969 288.966 68.9969L289.828 68.4911ZM289.081 65.144C289.081 63.6138 289.514 62.2797 290.374 61.1223L289.572 60.5256C288.576 61.8643 288.081 63.4102 288.081 65.144L289.081 65.144ZM290.369 61.1289C291.263 59.9672 292.557 59.0396 294.284 58.3614L293.918 57.4306C292.06 58.1604 290.603 59.1848 289.577 60.5191L290.369 61.1289ZM294.291 58.3585C296.008 57.6533 298.084 57.292 300.533 57.292L300.533 56.292C297.99 56.292 295.778 56.6667 293.911 57.4335L294.291 58.3585ZM300.533 57.292C302.256 57.292 304.014 57.48 305.806 57.8573L306.012 56.8787C304.156 56.488 302.33 56.292 300.533 56.292L300.533 57.292ZM305.806 57.8573C307.591 58.2331 309.055 58.7764 310.21 59.4757L310.728 58.6202C309.451 57.8476 307.875 57.2709 306.012 56.8787L305.806 57.8573ZM310.016 58.8359L307.52 64.1639L308.426 64.5881L310.922 59.2601L310.016 58.8359ZM308.227 63.9453C306.936 63.184 305.62 62.6658 304.279 62.3977L304.083 63.3783C305.302 63.6222 306.514 64.096 307.719 64.8067L308.227 63.9453ZM304.293 62.4008C303.011 62.105 301.758 61.956 300.533 61.956L300.533 62.956C301.676 62.956 302.854 63.095 304.068 63.3752L304.293 62.4008ZM300.533 61.956C298.845 61.956 297.519 62.1794 296.633 62.6961L297.137 63.5599C297.787 63.1806 298.892 62.956 300.533 62.956L300.533 61.956ZM296.633 62.6961C295.758 63.2064 295.233 63.9259 295.233 64.856L296.233 64.856C296.233 64.3781 296.476 63.9456 297.137 63.5599L296.633 62.6961ZM295.233 64.856C295.233 65.6701 295.596 66.3156 296.295 66.727L296.802 65.865C296.414 65.6364 296.233 65.3219 296.233 64.856L295.233 64.856ZM296.306 66.7331C296.941 67.0858 297.746 67.3555 298.704 67.5536L298.906 66.5744C298.008 66.3885 297.309 66.1462 296.792 65.8589L296.306 66.7331ZM298.704 67.5536C299.642 67.7479 300.66 67.9255 301.756 68.0867L301.902 67.0973C300.822 66.9385 299.823 66.7641 298.906 66.5744L298.704 67.5536ZM301.772 68.0888C302.869 68.2141 303.966 68.4178 305.064 68.7002L305.313 67.7317C304.172 67.4382 303.029 67.2259 301.886 67.0952L301.772 68.0888ZM305.064 68.7002C306.142 68.9773 307.103 69.3753 307.953 69.8914L308.472 69.0366C307.53 68.4646 306.476 68.0307 305.313 67.7317L305.064 68.7002ZM307.971 69.9018C308.822 70.3711 309.512 71.0301 310.044 71.8877L310.894 71.3603C310.274 70.3619 309.46 69.5809 308.454 69.0262L307.971 69.9018ZM310.048 71.8944C310.556 72.6844 310.833 73.7646 310.833 75.176L311.833 75.176C311.833 73.6434 311.534 72.3556 310.89 71.3536L310.048 71.8944ZM310.833 75.176C310.833 76.6677 310.388 77.9841 309.497 79.1431L310.289 79.7529C311.318 78.4159 311.833 76.8843 311.833 75.176L310.833 75.176ZM309.5 79.1382C308.609 80.2677 307.299 81.1814 305.537 81.8615L305.897 82.7945C307.783 82.0665 309.257 81.0603 310.285 79.7578L309.5 79.1382ZM305.534 81.8626C303.817 82.5373 301.691 82.884 299.141 82.884L299.141 83.884C301.775 83.884 304.033 83.5267 305.9 82.7934L305.534 81.8626Z" fill="white"/>
</svg>
